<svg xmlns="http://www.w3.org/2000/svg" viewBox="0 0 335.68 535.8"><path d="M408.14,40.88c-3.9-1.64-6-4.75-8.76-7.75-2.59.11-4.46,3-6.45,4.53-6.36,1.84-10.29,6.28-17.48,5.39-3.74-2.58-8.81-5.43-13.47-5-4.93,1-9.6,4.84-13.67,7.65-1.55,4.08-1.12,8.1-1.4,12.34a23.75,23.75,0,0,1-4,7.91c-2.94,2.83-7.82,5.06-10.31,8.59-2.8,5.43-1.34,10.82-.31,16.43.47,2.92,1.66,6.2-.61,8.68-2.95,3-8.14,4-11.77,6.22-4.63,2.94-9.82,4.67-14.46,7.6-2.41,1.57-4.85,1.64-7.64,1.73-3.35-5.33-6.4-10.73-10.38-15.65-2.23-2.65-5.13-4.1-8.28-5.36-5.1,2.71-10.09,4.49-14.57,7.77-2.72,0-5.74.42-8.38-.26-5.68-2.32-10.85-5-14-10.56A17.21,17.21,0,0,0,238,90c-1.91,1-1.84,3.62-2.58,5.53-1.14,4.51-4.07,7.78-4.61,12.37-.89,3.66-.17,7.12.7,10.7,4.22,3.77,9.51,3.79,14.29,5.82a36.11,36.11,0,0,1,7.11,4.68,26.41,26.41,0,0,1,5,8.86,108.2,108.2,0,0,1,0,13.11c-.52,2.91-3.51,5.39-5.15,7.8-2.4,3.4-5.7,5.43-8.89,8-3.27.31-6.36,1.48-9.47.8-7.7-.67-13.35-4.06-21.43-2.81-4.35,1-8.59,2.46-12.94,3.49-5.31,1.37-10.28,4.8-14.43,8.3-1.62,1.32-3.39,3.26-5.59,3.38a44.77,44.77,0,0,1-13.07-.71c-2.4-.53-4.44.23-6.69.91-.16,4.76-.48,9.24-2.49,13.64-2.33,5-3.72,10.73-6.41,15.59a26,26,0,0,1-9.59,8.19c-4,1.69-7.49,4.22-11.59,5.69-3,1-4.71,3.18-7,5.18-.35,2.14-.81,4.28-1,6.43a98.33,98.33,0,0,0,11.93,3.39c2.65,2.74,6.59,5.34,7.38,9.2,2.48,7.89,2.46,17.38-1.16,24.94A33.2,33.2,0,0,1,124.06,286c-9,.89-17.57-1.07-26-3.94a33.82,33.82,0,0,0-6.4,9.79c-1.24,2.55-2.71,4.68-3.4,7.49-.19,1.51.63,3.14,1,4.59,8,.56,14.69-1.37,22.14,2.7,4.19,1,6.73,2,9.52,5.31a104.56,104.56,0,0,1,2,14.31c-.25,2.94-.85,5.83-.91,8.81a54.52,54.52,0,0,0,7.57,7.62,6.14,6.14,0,0,0,5.34,1.19c1.91-.85,3.58-2.5,5.38-3.48,6.6-1.77,13.38-2,19.81.6,5.4,2.65,10.91,5,16.14,8a25,25,0,0,0,6-3.67c7.38-1.41,14.49-3.79,21.88-5.12,1.84-.23,3.58-.62,5,.8,4.82,4.71,4.25,14.18,10,18.07,6.22-1,8.58-5.25,12.76-9.22,1.72-1.79,3.19-4.24,5.25-5.61,2-.57,4.44-.25,6.55-.15,5.57,3.95,12.19,6.51,17.46,10.83,2.87,2.22,6.6,3.29,9.34,5.62,2.31,2.42.91,4.53.54,7.36-2.53,2.88-4.85,5.92-7.52,8.67s-4.64,6.67-3.56,10.49c.6,3.33,4.27,4.93,7.08,6,4.69,1.56,8.73,5.33,12.51,8.51a23.71,23.71,0,0,1,8,21.48c-.5,4.64-1.57,9.11-5.73,11.81-3.8,2.25-6.23,5.69-8.5,9.37-2.3,5.38-3.21,11.25-5.43,16.69-1.71,6.31-2.93,12.75-4.84,19,1.31,2.45,2.2,4.83,4.7,6.36,2.75,1.75,4.24,4.27,6,6.93,3.86,4.74,4.56,11.91,5.31,17.8a25.11,25.11,0,0,1-8.51,16.52c-2.38,2.53-5.3,3.16-8.38,4.54a20,20,0,0,1-2.42,17.62c-2.72,5.86-8.09,8.9-9.67,15.41,2.28.62,4.57,1.15,6.85,1.75,5.46-1.66,10.42-.33,16.07-1.11a82.84,82.84,0,0,1,8.45-1c2.84-4.72,4.88-9.78,8.19-14.19,2.23-2.91,2.8-7.07,5.29-9.64,4.35-2.74,11.37.91,15.65-1.41,3.54-3.88,5-8.38,7.08-13,6.73-10.56,13.37-20.63,22.44-29.44,2.5-2.52,4.57-5.37,7.28-7.7,5.78-5.07,10.6-10.66,16.74-15.28,3.52-3.61,7.93-6,11.5-9.54,6.48-4.82,13-9.62,19-15a64.14,64.14,0,0,1,7.57-5.44c3-1.9,5.17-4.63,8.06-6.84a134.45,134.45,0,0,0,11.65-9.3V44.29A25.91,25.91,0,0,1,408.14,40.88Z" transform="translate(-87.19 -32.11)" fill="#fff" stroke="#000" stroke-miterlimit="10" stroke-width="2" opacity="0.5"/><path d="M359.5,422.4h11.83a3.68,3.68,0,0,1,.74,0,1.09,1.09,0,0,1,.72,1v5.06c.71,0,1.42,0,2.12,0a10.49,10.49,0,0,1,9.81,9.18,10.71,10.71,0,0,1-.48,4.67,10.5,10.5,0,0,1-3.8,5.12,11.74,11.74,0,0,1-1.17.94,5.87,5.87,0,0,1-2.31.88c-.43,0-.85.12-1.28.14H346.57c-.65,0-1.26-.11-1.9-.18a1.2,1.2,0,0,1-.51-.21,3.62,3.62,0,0,1-1-.38,7.08,7.08,0,0,1-1.55-.91c-.33-.28-.71-.48-1-.77a10.47,10.47,0,0,1-3.71-7.28,8,8,0,0,1,.07-2.13,10.49,10.49,0,0,1,2.88-5.92,4.35,4.35,0,0,0,.34-.41c-2.9,0-5.8,0-8.7,0a1.07,1.07,0,0,1-1.05-1c0-.42,0-.85,0-1.28h-1.62a1.14,1.14,0,0,1-1.12-1c0-.51,0-1,0-1.56s-.07-.81.22-1.16a1.06,1.06,0,0,1,.93-.47h15.87a1.2,1.2,0,0,1,.38-1c.38-.34.8-.24,1.27-.25,4,0,8.06,0,12.08,0,.08-.19.06-.44.17-.62A1,1,0,0,1,359.5,422.4Z" transform="translate(-87.19 -32.11)" fill="#591a1b"/><path d="M360.2,424.11h10.89v4.4h-.37v-.42c0-1.21,0-2.42,0-3.62-3.5,0-7,0-10.51,0Z" transform="translate(-87.19 -32.11)" fill="#dcdcdc"/><path d="M360.2,424.46c3.51,0,7,0,10.51,0,0,1.21,0,2.42,0,3.62-2.62,0-5.24,0-7.87,0-.88,0-1.76,0-2.65,0Z" transform="translate(-87.19 -32.11)" fill="#ea3031"/><path d="M346.41,425.3H358.5v3.21h-.35v-2.85H346.43C346.43,425.54,346.42,425.41,346.41,425.3Z" transform="translate(-87.19 -32.11)" fill="#dcdcdc"/><path d="M346.43,425.66h11.71v2.78c0-.11-.05-.23-.08-.34a11.86,11.86,0,0,0-1.46,0h-9.37l-.8,0C346.45,427.28,346.46,426.47,346.43,425.66Z" transform="translate(-87.19 -32.11)" fill="#ea3031"/><path d="M329.36,426.51h15.36v.78h-.37v-.41h-15Z" transform="translate(-87.19 -32.11)" fill="#dcdcdc"/><path d="M329.38,426.87h15v.4c-.68,0-1.36,0-2,0H329.4Z" transform="translate(-87.19 -32.11)" fill="#ea3031"/><path d="M346.44,428.1l.79,0h9.38a14,14,0,0,1,1.45,0l.09.35v.07h-11.7C346.44,428.37,346.44,428.23,346.44,428.1Z" transform="translate(-87.19 -32.11)" fill="#922123"/><path d="M360.2,428.09c.88,0,1.77,0,2.65,0,2.63,0,5.25,0,7.87,0v.43H360.2Z" transform="translate(-87.19 -32.11)" fill="#922123"/><path d="M332.13,429h12a3.47,3.47,0,0,1-1.41.4H332.14C332.14,429.26,332.14,429.12,332.13,429Z" transform="translate(-87.19 -32.11)" fill="#dcdcdc"/><path d="M346.33,430.27a13.39,13.39,0,0,1,1.79-.06h26.34a8.78,8.78,0,0,1,7.85,12.37,3.83,3.83,0,0,1,.19-.74,8.61,8.61,0,0,0-.27-5.75,8.79,8.79,0,0,0-2.75-3.63,8.57,8.57,0,0,0-5-1.83H347.24a8.69,8.69,0,0,0-7.38,4,1,1,0,0,1-.29.31,9.06,9.06,0,0,1,1.49-2A8.69,8.69,0,0,1,346.33,430.27Z" transform="translate(-87.19 -32.11)" fill="#dcdcdc"/><path d="M347.22,430.63h27.23a8.6,8.6,0,0,1,5,1.83,8.9,8.9,0,0,1,2.76,3.63,8.67,8.67,0,0,1,.27,5.75,3.22,3.22,0,0,0-.19.74,8.85,8.85,0,0,1-1.13,1.83c-.48.34-.86.79-1.35,1.14a8.8,8.8,0,0,1-5.38,1.84h-26.9a8.78,8.78,0,0,1-8.73-7.89,11.88,11.88,0,0,1,.13-2.92,9.81,9.81,0,0,1,.61-1.67.9.9,0,0,0,.28-.3A8.67,8.67,0,0,1,347.22,430.63Z" transform="translate(-87.19 -32.11)" fill="#ea3031"/><path d="M349.24,432.49h24.44a6.92,6.92,0,0,1,2.3.36,6.15,6.15,0,0,1,3.72,3.64,5.66,5.66,0,0,1,.23,3.23,6.53,6.53,0,0,0-1-4A6.09,6.09,0,0,0,374.8,433a10.08,10.08,0,0,0-1.9-.08H347.79a6.07,6.07,0,0,0-4,1.49,11.16,11.16,0,0,0-1.19,1.29A3,3,0,0,1,343,435a6.06,6.06,0,0,1,3.55-2.36A12.23,12.23,0,0,1,349.24,432.49Z" transform="translate(-87.19 -32.11)" fill="#922123"/><path d="M347.79,432.94h25.1a10.91,10.91,0,0,1,1.9.08,6.15,6.15,0,0,1,4.17,2.75,6.63,6.63,0,0,1,1,4,5.83,5.83,0,0,1-.47,1.59A6.1,6.1,0,0,1,374,445H347.67a5.87,5.87,0,0,1-1.18-.15,6.12,6.12,0,0,1-4.6-7.32l.06-.11a5,5,0,0,1,.7-1.73,10.4,10.4,0,0,1,1.19-1.29A6,6,0,0,1,347.79,432.94Z" transform="translate(-87.19 -32.11)" fill="#591a1b"/><path d="M348.92,434.61h24.89a4.23,4.23,0,0,1,2.27.61,4.37,4.37,0,0,1-.78,7.89,8.24,8.24,0,0,1-2.8.22,9.29,9.29,0,0,1-.83-.83,4.38,4.38,0,0,0,3.42.29,4,4,0,0,0-2.46-7.7,4.2,4.2,0,0,0-2,1.33,6.77,6.77,0,0,0-1.49-.07h-16.3c-.57,0-1.14,0-1.71,0a4.18,4.18,0,0,0-3-1.45,4,4,0,0,0-3.58,1.88,4.15,4.15,0,0,0-.36,3.6,4.32,4.32,0,0,0,1.54,1.92,4.07,4.07,0,0,0,4.6-.08,4,4,0,0,0,1.68-3.43,5.21,5.21,0,0,0-.56-2,5.3,5.3,0,0,1,2.06,2.78,4.32,4.32,0,0,1-.22,2.61,6.36,6.36,0,0,1-.72,1.13H347.9a4.54,4.54,0,0,1-2-.45,4.38,4.38,0,0,1,.62-8.06A6.93,6.93,0,0,1,348.92,434.61Z" transform="translate(-87.19 -32.11)" fill="#812123"/><path d="M348.12,434.94a4.15,4.15,0,0,1,3,1.44l.35.43a5.3,5.3,0,0,1,.56,2,4,4,0,0,1-1.68,3.43,4.09,4.09,0,0,1-4.61.08,4.38,4.38,0,0,1-1.54-1.92,4.19,4.19,0,0,1,.37-3.6A4,4,0,0,1,348.12,434.94Z" transform="translate(-87.19 -32.11)" fill="#591a1b"/><path d="M372.62,435.09a4,4,0,0,1,2.46,7.7,4.43,4.43,0,0,1-3.42-.29A5.11,5.11,0,0,1,370.2,441a4.1,4.1,0,0,1,.39-4.54,4.28,4.28,0,0,1,2-1.33Z" transform="translate(-87.19 -32.11)" fill="#591a1b"/><path d="M351.1,436.39c.57-.05,1.14,0,1.71,0H369.1a6.77,6.77,0,0,1,1.49.07,4.1,4.1,0,0,0-.39,4.54,4.77,4.77,0,0,0,1.46,1.54,7.23,7.23,0,0,0,.83.83l-1.16,0c-6.26,0-12.51,0-18.77,0a5.48,5.48,0,0,0,.72-1.12,4.28,4.28,0,0,0,.23-2.62,5.33,5.33,0,0,0-2.06-2.77Z" transform="translate(-87.19 -32.11)" fill="#922123"/><path d="M339,436.58a12.39,12.39,0,0,0-.13,2.92,8.82,8.82,0,0,0,8.74,7.9h26.9a8.87,8.87,0,0,0,5.38-1.85c.49-.34.87-.8,1.35-1.14a7.93,7.93,0,0,1-2.36,2.14,7.83,7.83,0,0,1-4.26,1.18H347.45a13.65,13.65,0,0,1-1.43,0A8.75,8.75,0,0,1,339,436.58Z" transform="translate(-87.19 -32.11)" fill="#922123"/><path d="M348.11,436.68a2.32,2.32,0,0,1,1.18,4.22,3,3,0,0,0,.63-1.29,2.29,2.29,0,0,0-1.66-2.59,2.52,2.52,0,0,0-1.84.27A2.25,2.25,0,0,1,348.11,436.68Z" transform="translate(-87.19 -32.11)" fill="#dcdcdc"/><path d="M373.67,436.68a2.31,2.31,0,0,1,1.44,4.15h-.06a2.47,2.47,0,0,0,.63-1.79,2.31,2.31,0,0,0-2.11-2.1,2.75,2.75,0,0,0-1.4.33A2.21,2.21,0,0,1,373.67,436.68Z" transform="translate(-87.19 -32.11)" fill="#dcdcdc"/><path d="M348.26,437a2.3,2.3,0,0,1,1.66,2.6,3.05,3.05,0,0,1-.63,1.29,3.09,3.09,0,0,1-1.4.35,2.28,2.28,0,0,1-2.14-1.73,2.36,2.36,0,0,1,.67-2.24A2.56,2.56,0,0,1,348.26,437Z" transform="translate(-87.19 -32.11)" fill="#ea3031"/><path d="M373.57,437a2.29,2.29,0,0,1,2.11,2.1,2.44,2.44,0,0,1-.63,1.79h.07a2.49,2.49,0,0,1-2,.34,2.3,2.3,0,0,1-1.66-2.46,1.78,1.78,0,0,1,2.11-1.76Z" transform="translate(-87.19 -32.11)" fill="#ea3031"/><path d="M341.89,437.58a5.77,5.77,0,0,0-.15,1.18,6.11,6.11,0,0,0,5.93,6.29H374a6.09,6.09,0,0,0,5.44-3.72,3.59,3.59,0,0,1-.63,1.41,6.14,6.14,0,0,1-5,2.75H347.56c-.21,0-.42,0-.63,0h0a6.14,6.14,0,0,1-5.31-6.84A2.71,2.71,0,0,1,341.89,437.58Z" transform="translate(-87.19 -32.11)" fill="#dcdcdc"/><path d="M341.87,429.48h-9.72l0-.18h10.31c.28,0,.55,0,.83,0A3.16,3.16,0,0,1,341.87,429.48Z" transform="translate(-87.19 -32.11)" fill="#ea3031"/><path d="M362.29,334.28h11.84a3,3,0,0,1,.73,0,1.07,1.07,0,0,1,.72,1v5.06c.71,0,1.42,0,2.12,0a10.49,10.49,0,0,1,9.81,9.18,10.71,10.71,0,0,1-.48,4.67,10.37,10.37,0,0,1-3.8,5.11,11.84,11.84,0,0,1-1.17.95,6,6,0,0,1-2.31.88c-.43,0-.85.12-1.27.14H349.36c-.65,0-1.26-.11-1.9-.18a1.2,1.2,0,0,1-.51-.21,3.77,3.77,0,0,1-1-.38,7.15,7.15,0,0,1-1.56-.91c-.33-.28-.7-.48-1-.77a10.44,10.44,0,0,1-3.72-7.28,8.45,8.45,0,0,1,.07-2.13,10.49,10.49,0,0,1,2.88-5.92,4.35,4.35,0,0,0,.34-.41c-2.9,0-5.8,0-8.69,0a1.07,1.07,0,0,1-1.06-1c0-.42,0-.85,0-1.28H331.6a1.15,1.15,0,0,1-1.12-1c0-.52,0-1,0-1.56s-.07-.81.22-1.16a1.07,1.07,0,0,1,.93-.47h15.87a1.18,1.18,0,0,1,.39-1c.37-.34.79-.24,1.26-.25h12.08c.09-.19.06-.44.17-.62A1,1,0,0,1,362.29,334.28Z" transform="translate(-87.19 -32.11)" fill="#591a1b"/><path d="M363,336h10.88v4.4h-.37V340c0-1.21,0-2.42,0-3.62-3.5,0-7,0-10.5,0Z" transform="translate(-87.19 -32.11)" fill="#dcdcdc"/><path d="M363,336.34c3.5,0,7,0,10.5,0,0,1.21,0,2.42,0,3.62-2.62,0-5.24,0-7.86,0-.89,0-1.77,0-2.65,0Z" transform="translate(-87.19 -32.11)" fill="#ea3031"/><path d="M349.2,337.18h12.09v3.21h-.35v-2.85H349.22C349.22,337.42,349.21,337.29,349.2,337.18Z" transform="translate(-87.19 -32.11)" fill="#dcdcdc"/><path d="M349.22,337.54h11.71v2.78c0-.11-.05-.23-.08-.35a14.22,14.22,0,0,0-1.46,0H350l-.79,0C349.25,339.16,349.25,338.35,349.22,337.54Z" transform="translate(-87.19 -32.11)" fill="#ea3031"/><path d="M332.16,338.39h15.35v.78l-.37,0v-.4h-15Z" transform="translate(-87.19 -32.11)" fill="#dcdcdc"/><path d="M332.17,338.75h15v.4c-.68,0-1.36,0-2,0H332.19Z" transform="translate(-87.19 -32.11)" fill="#ea3031"/><path d="M349.23,340l.79,0h9.38c.48,0,1,0,1.45,0l.09.35v.07H349.24C349.23,340.25,349.23,340.11,349.23,340Z" transform="translate(-87.19 -32.11)" fill="#922123"/><path d="M363,340c.88,0,1.76,0,2.64,0,2.63,0,5.25,0,7.87,0v.43H363Z" transform="translate(-87.19 -32.11)" fill="#922123"/><path d="M334.92,340.87h12a3.47,3.47,0,0,1-1.41.4H334.93A2.67,2.67,0,0,0,334.92,340.87Z" transform="translate(-87.19 -32.11)" fill="#dcdcdc"/><path d="M349.12,342.15a13.39,13.39,0,0,1,1.79-.06h26.34a8.77,8.77,0,0,1,8.59,8,9.06,9.06,0,0,1-.73,4.42,3.2,3.2,0,0,1,.18-.74A8.61,8.61,0,0,0,385,348a8.79,8.79,0,0,0-2.75-3.63,8.65,8.65,0,0,0-5-1.84H350a8.72,8.72,0,0,0-7.38,4,1,1,0,0,1-.29.31,9.06,9.06,0,0,1,1.49-2A8.72,8.72,0,0,1,349.12,342.15Z" transform="translate(-87.19 -32.11)" fill="#dcdcdc"/><path d="M350,342.51h27.23a8.6,8.6,0,0,1,5,1.83,8.69,8.69,0,0,1,3,9.38,3.22,3.22,0,0,0-.19.74,8.9,8.9,0,0,1-1.12,1.82c-.49.35-.87.8-1.36,1.15a8.8,8.8,0,0,1-5.38,1.84H350.36a8.78,8.78,0,0,1-8.74-7.89,12.39,12.39,0,0,1,.13-2.92,9.51,9.51,0,0,1,.61-1.67.86.86,0,0,0,.29-.31A8.67,8.67,0,0,1,350,342.51Z" transform="translate(-87.19 -32.11)" fill="#ea3031"/><path d="M352,344.37h24.44a6.92,6.92,0,0,1,2.3.36,6.15,6.15,0,0,1,3.72,3.64,5.66,5.66,0,0,1,.23,3.23,6.59,6.59,0,0,0-1-4,6.11,6.11,0,0,0-4.17-2.75,10.08,10.08,0,0,0-1.9-.08H350.58a6.07,6.07,0,0,0-3.95,1.49,10.4,10.4,0,0,0-1.19,1.29,3,3,0,0,1,.34-.69,6.09,6.09,0,0,1,3.56-2.36A12.14,12.14,0,0,1,352,344.37Z" transform="translate(-87.19 -32.11)" fill="#922123"/><path d="M350.58,344.82h25.1a11.06,11.06,0,0,1,1.91.08,6.13,6.13,0,0,1,4.16,2.75,6.54,6.54,0,0,1,1,4,5.83,5.83,0,0,1-.47,1.59,6.1,6.1,0,0,1-5.44,3.72H350.46a6,6,0,0,1-1.18-.15,6.12,6.12,0,0,1-4.6-7.32l.06-.11a5,5,0,0,1,.7-1.73,10.4,10.4,0,0,1,1.19-1.29A6,6,0,0,1,350.58,344.82Z" transform="translate(-87.19 -32.11)" fill="#591a1b"/><path d="M351.71,346.49H376.6a4.23,4.23,0,0,1,2.27.61,4.36,4.36,0,0,1-.78,7.88,8,8,0,0,1-2.8.23,10.83,10.83,0,0,1-.83-.83,4.39,4.39,0,0,0,3.42.29,4,4,0,0,0-2.46-7.7,4.2,4.2,0,0,0-2,1.33,6.74,6.74,0,0,0-1.49-.07H355.6c-.57,0-1.14,0-1.71,0a4.16,4.16,0,0,0-3-1.45,4.05,4.05,0,0,0-3.58,1.88,4.15,4.15,0,0,0-.36,3.6,4.38,4.38,0,0,0,1.54,1.92,4.09,4.09,0,0,0,4.61-.08,4,4,0,0,0,1.67-3.44,5,5,0,0,0-.56-2,5.3,5.3,0,0,1,2.06,2.78,4.33,4.33,0,0,1-.22,2.61,6.36,6.36,0,0,1-.72,1.13h-4.67a4.54,4.54,0,0,1-2.05-.45,4.38,4.38,0,0,1,.62-8.06A6.93,6.93,0,0,1,351.71,346.49Z" transform="translate(-87.19 -32.11)" fill="#812123"/><path d="M350.91,346.82a4.14,4.14,0,0,1,3,1.44l.35.43a5.31,5.31,0,0,1,.56,2,4,4,0,0,1-6.28,3.52A4.25,4.25,0,0,1,347,352.3a4.15,4.15,0,0,1,.36-3.6A4,4,0,0,1,350.91,346.82Z" transform="translate(-87.19 -32.11)" fill="#591a1b"/><path d="M375.41,347a4,4,0,0,1,2.46,7.7,4.43,4.43,0,0,1-3.42-.29,5.07,5.07,0,0,1-1.45-1.54,4.08,4.08,0,0,1,.38-4.54,4.2,4.2,0,0,1,2-1.33Z" transform="translate(-87.19 -32.11)" fill="#591a1b"/><path d="M353.89,348.27c.57,0,1.14,0,1.71,0h16.29a6.74,6.74,0,0,1,1.49.07,4.1,4.1,0,0,0-.39,4.54,4.88,4.88,0,0,0,1.46,1.54,8.13,8.13,0,0,0,.83.83l-1.16,0c-6.26,0-12.51,0-18.77,0a5.77,5.77,0,0,0,.72-1.12,4.28,4.28,0,0,0,.23-2.62,5.28,5.28,0,0,0-2.06-2.77Z" transform="translate(-87.19 -32.11)" fill="#922123"/><path d="M341.75,348.46a11.41,11.41,0,0,0-.13,2.92,8.8,8.8,0,0,0,8.73,7.9h26.9a8.87,8.87,0,0,0,5.38-1.85c.49-.34.87-.8,1.36-1.15a7.59,7.59,0,0,1-2.37,2.14,7.76,7.76,0,0,1-4.26,1.19H350.24a11.39,11.39,0,0,1-1.43,0,8.73,8.73,0,0,1-7.06-11.11Z" transform="translate(-87.19 -32.11)" fill="#922123"/><path d="M350.91,348.56a2.32,2.32,0,0,1,1.18,4.22,3.24,3.24,0,0,0,.63-1.29,2.29,2.29,0,0,0-1.67-2.59,2.52,2.52,0,0,0-1.84.27A2.27,2.27,0,0,1,350.91,348.56Z" transform="translate(-87.19 -32.11)" fill="#dcdcdc"/><path d="M376.47,348.55a2.31,2.31,0,0,1,1.43,4.16h-.06a2.47,2.47,0,0,0,.63-1.79,2.3,2.3,0,0,0-2.11-2.1,2.75,2.75,0,0,0-1.4.33A2.27,2.27,0,0,1,376.47,348.55Z" transform="translate(-87.19 -32.11)" fill="#dcdcdc"/><path d="M351.05,348.9a2.3,2.3,0,0,1,1.67,2.6,3.31,3.31,0,0,1-.63,1.29,3.15,3.15,0,0,1-1.4.35,2.29,2.29,0,0,1-2.15-1.73,2.36,2.36,0,0,1,.67-2.24A2.56,2.56,0,0,1,351.05,348.9Z" transform="translate(-87.19 -32.11)" fill="#ea3031"/><path d="M376.36,348.83a2.31,2.31,0,0,1,2.12,2.1,2.45,2.45,0,0,1-.64,1.78h.07a2.49,2.49,0,0,1-2,.34,2.31,2.31,0,0,1-1.66-2.46,1.78,1.78,0,0,1,2.11-1.76Z" transform="translate(-87.19 -32.11)" fill="#ea3031"/><path d="M344.68,349.46a5.77,5.77,0,0,0-.15,1.18,6.12,6.12,0,0,0,5.93,6.29H376.8a6.09,6.09,0,0,0,5.44-3.72,3.45,3.45,0,0,1-.63,1.41,6.14,6.14,0,0,1-5,2.75H350.35a4.21,4.21,0,0,1-.62-.05h0a6.12,6.12,0,0,1-5.32-6.83A2.71,2.71,0,0,1,344.68,349.46Z" transform="translate(-87.19 -32.11)" fill="#dcdcdc"/><path d="M344.66,341.36h-9.72l0-.18h10.31l.84,0A3.22,3.22,0,0,1,344.66,341.36Z" transform="translate(-87.19 -32.11)" fill="#ea3031"/><path d="M361.76,250.86H373.6a3.59,3.59,0,0,1,.73,0,1.07,1.07,0,0,1,.72,1V257c.71,0,1.42,0,2.12,0a10.49,10.49,0,0,1,9.33,13.85,10.37,10.37,0,0,1-3.8,5.11,11.84,11.84,0,0,1-1.17.95,6,6,0,0,1-2.3.88c-.44,0-.85.12-1.28.14H348.83a17.46,17.46,0,0,1-1.9-.19,1.07,1.07,0,0,1-.51-.2,3.92,3.92,0,0,1-1-.38,7.15,7.15,0,0,1-1.56-.91c-.32-.28-.7-.48-1-.77a10.51,10.51,0,0,1-3.71-7.29,7.94,7.94,0,0,1,.06-2.12,10.55,10.55,0,0,1,2.88-5.93,3.44,3.44,0,0,0,.35-.41c-2.91,0-5.8,0-8.7,0a1.06,1.06,0,0,1-1.06-.95c0-.43,0-.85,0-1.28h-1.62a1.15,1.15,0,0,1-1.12-1c0-.52,0-1,0-1.56s-.07-.82.21-1.16a1.06,1.06,0,0,1,.93-.47H347a1.21,1.21,0,0,1,.39-1c.38-.33.8-.23,1.26-.25,4,0,8.07,0,12.08,0,.09-.18.06-.43.17-.62A1.07,1.07,0,0,1,361.76,250.86Z" transform="translate(-87.19 -32.11)" fill="#591a1b"/><path d="M362.47,252.58h10.88V257H373v-.43c0-1.2,0-2.41,0-3.62H362.47Z" transform="translate(-87.19 -32.11)" fill="#dcdcdc"/><path d="M362.47,252.93H373c0,1.2,0,2.41,0,3.62-2.63,0-5.25,0-7.87,0-.88,0-1.77,0-2.65,0Z" transform="translate(-87.19 -32.11)" fill="#ea3031"/><path d="M348.68,253.77h12.08V257h-.35v-.07c0-.93,0-1.85,0-2.78H348.69C348.69,254,348.68,253.88,348.68,253.77Z" transform="translate(-87.19 -32.11)" fill="#dcdcdc"/><path d="M348.69,254.13H360.4c0,.93,0,1.85,0,2.78l-.09-.35c-.48,0-1,0-1.45,0h-9.38l-.79,0C348.72,255.75,348.72,254.94,348.69,254.13Z" transform="translate(-87.19 -32.11)" fill="#ea3031"/><path d="M331.63,255H347v.78l-.36,0v-.4h-15Z" transform="translate(-87.19 -32.11)" fill="#dcdcdc"/><path d="M331.64,255.34h15v.4c-.68,0-1.36,0-2,0H331.66Z" transform="translate(-87.19 -32.11)" fill="#ea3031"/><path d="M348.7,256.56l.8,0h9.37c.48,0,1,0,1.45,0l.09.35V257H348.71C348.71,256.84,348.7,256.7,348.7,256.56Z" transform="translate(-87.19 -32.11)" fill="#922123"/><path d="M362.47,256.56c.88-.05,1.76,0,2.65,0,2.62,0,5.24,0,7.87,0V257H362.47Z" transform="translate(-87.19 -32.11)" fill="#922123"/><path d="M334.39,257.46c4,0,8,0,12.05,0a3.56,3.56,0,0,1-1.41.4H334.4A2.64,2.64,0,0,0,334.39,257.46Z" transform="translate(-87.19 -32.11)" fill="#dcdcdc"/><path d="M348.6,258.73a15.06,15.06,0,0,1,1.78-.05h26.34a8.77,8.77,0,0,1,8.59,7.95,9.06,9.06,0,0,1-.73,4.42,3.22,3.22,0,0,1,.19-.74,8.67,8.67,0,0,0-.27-5.75,8.91,8.91,0,0,0-2.75-3.64,8.73,8.73,0,0,0-5-1.83H349.5a8.72,8.72,0,0,0-7.38,4,.83.83,0,0,1-.29.3,9.23,9.23,0,0,1,1.49-2A8.79,8.79,0,0,1,348.6,258.73Z" transform="translate(-87.19 -32.11)" fill="#dcdcdc"/><path d="M349.48,259.09h27.24a8.79,8.79,0,0,1,7.78,5.47,8.61,8.61,0,0,1,.27,5.75,3.83,3.83,0,0,0-.19.74,8.74,8.74,0,0,1-1.12,1.82c-.48.35-.87.8-1.36,1.15a8.8,8.8,0,0,1-5.38,1.84H349.83a8.8,8.8,0,0,1-8.74-7.89,12.39,12.39,0,0,1,.13-2.92,11.43,11.43,0,0,1,.61-1.67.86.86,0,0,0,.29-.31A8.7,8.7,0,0,1,349.48,259.09Z" transform="translate(-87.19 -32.11)" fill="#ea3031"/><path d="M351.5,261h24.44a6.92,6.92,0,0,1,2.3.36A6.12,6.12,0,0,1,382,265a5.48,5.48,0,0,1,.23,3.23,6.52,6.52,0,0,0-1-3.95,6.16,6.16,0,0,0-4.17-2.76,11,11,0,0,0-1.9-.08H350.05a6.07,6.07,0,0,0-3.95,1.5,11.23,11.23,0,0,0-1.19,1.29,3.17,3.17,0,0,1,.34-.69,6.18,6.18,0,0,1,3.56-2.37A11.56,11.56,0,0,1,351.5,261Z" transform="translate(-87.19 -32.11)" fill="#922123"/><path d="M350.05,261.41h25.11a10.08,10.08,0,0,1,1.9.08,6.09,6.09,0,0,1,4.16,2.75,6.53,6.53,0,0,1,1,3.95,5.9,5.9,0,0,1-.47,1.6,6.07,6.07,0,0,1-5.44,3.72H349.94a6,6,0,0,1-1.19-.15,6.1,6.1,0,0,1-4.59-7.32l0-.11a5.17,5.17,0,0,1,.7-1.73,12.23,12.23,0,0,1,1.19-1.3A6.11,6.11,0,0,1,350.05,261.41Z" transform="translate(-87.19 -32.11)" fill="#591a1b"/><path d="M351.18,263.07h24.89a4.22,4.22,0,0,1,2.27.62,4.36,4.36,0,0,1-.78,7.88,8,8,0,0,1-2.8.23,9.17,9.17,0,0,1-.82-.83,4.43,4.43,0,0,0,3.42.29,4,4,0,0,0-2.46-7.7,4.12,4.12,0,0,0-2,1.33,6.65,6.65,0,0,0-1.48-.07h-16.3c-.58,0-1.15,0-1.72,0a4.15,4.15,0,0,0-3-1.44,4,4,0,0,0-3.57,1.87,4.16,4.16,0,0,0-.37,3.6A4.27,4.27,0,0,0,348,270.8a4.07,4.07,0,0,0,4.61-.07,4,4,0,0,0,1.67-3.44,5,5,0,0,0-.55-2,5.26,5.26,0,0,1,2,2.77,4.28,4.28,0,0,1-.22,2.62,5.48,5.48,0,0,1-.72,1.12h-4.67a4.41,4.41,0,0,1-2.05-.44,4.46,4.46,0,0,1-2.29-4.85,4.41,4.41,0,0,1,2.91-3.21A7.17,7.17,0,0,1,351.18,263.07Z" transform="translate(-87.19 -32.11)" fill="#812123"/><path d="M350.39,263.4a4.18,4.18,0,0,1,3,1.45l.35.43a5.31,5.31,0,0,1,.56,2,4,4,0,0,1-1.68,3.44,4.05,4.05,0,0,1-4.6.07,4.21,4.21,0,0,1-1.54-1.92,4.12,4.12,0,0,1,.37-3.6A4.07,4.07,0,0,1,350.39,263.4Z" transform="translate(-87.19 -32.11)" fill="#591a1b"/><path d="M374.88,263.56a4,4,0,0,1,2.46,7.7,4.47,4.47,0,0,1-3.42-.29,5,5,0,0,1-1.45-1.55,4.06,4.06,0,0,1,.38-4.53,4.19,4.19,0,0,1,2-1.33Z" transform="translate(-87.19 -32.11)" fill="#591a1b"/><path d="M353.36,264.85c.57,0,1.14,0,1.71,0h16.3a6.65,6.65,0,0,1,1.48.07,4.07,4.07,0,0,0-.38,4.54,5,5,0,0,0,1.45,1.54,9.29,9.29,0,0,0,.83.83h-1.16c-6.26,0-12.5,0-18.76,0a6.89,6.89,0,0,0,.72-1.12,4.36,4.36,0,0,0,.22-2.62,5.28,5.28,0,0,0-2.06-2.77Z" transform="translate(-87.19 -32.11)" fill="#922123"/><path d="M341.22,265a12.47,12.47,0,0,0-.13,2.93,8.78,8.78,0,0,0,8.74,7.89h26.89A8.8,8.8,0,0,0,382.1,274c.49-.34.88-.8,1.36-1.15a8.28,8.28,0,0,1-6.63,3.32H349.71a11.38,11.38,0,0,1-1.43,0A8.73,8.73,0,0,1,341.22,265Z" transform="translate(-87.19 -32.11)" fill="#922123"/><path d="M350.38,265.15a2.28,2.28,0,0,1,2.07,1.64,2.34,2.34,0,0,1-.89,2.58,3.18,3.18,0,0,0,.63-1.29,2.29,2.29,0,0,0-1.67-2.59,2.52,2.52,0,0,0-1.84.27A2.27,2.27,0,0,1,350.38,265.15Z" transform="translate(-87.19 -32.11)" fill="#dcdcdc"/><path d="M375.94,265.14a2.31,2.31,0,0,1,1.44,4.15h-.07a2.46,2.46,0,0,0,.64-1.79,2.31,2.31,0,0,0-2.12-2.09,2.75,2.75,0,0,0-1.4.33A2.24,2.24,0,0,1,375.94,265.14Z" transform="translate(-87.19 -32.11)" fill="#dcdcdc"/><path d="M350.52,265.49a2.29,2.29,0,0,1,1.67,2.59,3.21,3.21,0,0,1-.63,1.3,3.26,3.26,0,0,1-1.4.35A2.28,2.28,0,0,1,348,268a2.32,2.32,0,0,1,.66-2.23A2.52,2.52,0,0,1,350.52,265.49Z" transform="translate(-87.19 -32.11)" fill="#ea3031"/><path d="M375.83,265.42a2.3,2.3,0,0,1,2.12,2.09,2.5,2.5,0,0,1-.63,1.79h.06a2.45,2.45,0,0,1-2,.35,2.3,2.3,0,0,1-1.65-2.46,2.61,2.61,0,0,1,.7-1.43A2.73,2.73,0,0,1,375.83,265.42Z" transform="translate(-87.19 -32.11)" fill="#ea3031"/><path d="M344.15,266a6,6,0,0,0-.15,1.19,6.11,6.11,0,0,0,5.93,6.28h26.34a6.1,6.1,0,0,0,5.45-3.72,3.56,3.56,0,0,1-.63,1.42,6.16,6.16,0,0,1-5,2.75H349.82c-.21,0-.41,0-.62,0h0a6.12,6.12,0,0,1-5.31-6.84A2.61,2.61,0,0,1,344.15,266Z" transform="translate(-87.19 -32.11)" fill="#dcdcdc"/><path d="M344.13,258h-9.72l0-.18H344.7q.42,0,.84,0A3.2,3.2,0,0,1,344.13,258Z" transform="translate(-87.19 -32.11)" fill="#ea3031"/><path d="M361.4,167.45c3.94,0,7.9,0,11.84,0a3,3,0,0,1,.73.05,1,1,0,0,1,.72,1v5.07c.72,0,1.42,0,2.13,0a10.49,10.49,0,0,1,9.81,9.18,10.87,10.87,0,0,1-.48,4.67,10.53,10.53,0,0,1-3.8,5.11,11.84,11.84,0,0,1-1.17,1,6,6,0,0,1-2.31.88c-.43,0-.85.12-1.28.14H348.48c-.65,0-1.26-.12-1.9-.19a1.14,1.14,0,0,1-.51-.2,4,4,0,0,1-1-.39,6.47,6.47,0,0,1-1.55-.9c-.33-.29-.71-.48-1-.77a10.51,10.51,0,0,1-3.71-7.29,7.92,7.92,0,0,1,.07-2.12,10.39,10.39,0,0,1,2.88-5.93,4.62,4.62,0,0,0,.34-.41c-2.9,0-5.8,0-8.7,0a1.05,1.05,0,0,1-1-.95c0-.43,0-.86,0-1.28h-1.62a1.16,1.16,0,0,1-1.13-1c0-.52,0-1,0-1.57s-.07-.81.21-1.15a1.06,1.06,0,0,1,.93-.47H346.6a1.23,1.23,0,0,1,.38-1c.38-.33.8-.24,1.26-.25,4,0,8.07,0,12.09,0a4.77,4.77,0,0,1,.17-.62A1,1,0,0,1,361.4,167.45Z" transform="translate(-87.19 -32.11)" fill="#591a1b"/><path d="M362.11,169.17H373v4.4h-.37v-.43c0-1.2,0-2.41,0-3.62-3.5,0-7,0-10.51,0Z" transform="translate(-87.19 -32.11)" fill="#dcdcdc"/><path d="M362.11,169.52h10.51c0,1.2,0,2.41,0,3.62-2.62,0-5.24,0-7.87,0-.88,0-1.77,0-2.65,0Z" transform="translate(-87.19 -32.11)" fill="#ea3031"/><path d="M348.32,170.36h12.09v3.2h-.35v-2.84H348.34C348.33,170.6,348.33,170.47,348.32,170.36Z" transform="translate(-87.19 -32.11)" fill="#dcdcdc"/><path d="M348.34,170.72H360c0,.93,0,1.85,0,2.78l-.09-.35c-.48,0-1,0-1.45,0h-9.37l-.8,0C348.36,172.34,348.37,171.53,348.34,170.72Z" transform="translate(-87.19 -32.11)" fill="#ea3031"/><path d="M331.27,171.56h15.35v.79l-.36,0v-.41h-15Z" transform="translate(-87.19 -32.11)" fill="#dcdcdc"/><path d="M331.28,171.92h15v.41c-.67,0-1.35,0-2,0-4.3,0-8.61,0-12.91,0Z" transform="translate(-87.19 -32.11)" fill="#ea3031"/><path d="M348.35,173.15l.79,0h9.37a11.86,11.86,0,0,1,1.46,0c0,.11.06.23.08.34v.07h-11.7C348.35,173.43,348.35,173.29,348.35,173.15Z" transform="translate(-87.19 -32.11)" fill="#922123"/><path d="M362.11,173.14c.88,0,1.77,0,2.65,0,2.62,0,5.25,0,7.87,0v.42H362.11Z" transform="translate(-87.19 -32.11)" fill="#922123"/><path d="M334,174.05c4,0,8,0,12.05,0a3.51,3.51,0,0,1-1.41.4H334.05C334.05,174.31,334,174.17,334,174.05Z" transform="translate(-87.19 -32.11)" fill="#dcdcdc"/><path d="M348.24,175.32a13.38,13.38,0,0,1,1.79,0h26.34a8.75,8.75,0,0,1,8.58,7.95,8.84,8.84,0,0,1-.73,4.42,3.83,3.83,0,0,1,.19-.74,8.6,8.6,0,0,0-.27-5.75,8.82,8.82,0,0,0-2.75-3.64,8.73,8.73,0,0,0-5-1.83H349.14a8.72,8.72,0,0,0-7.37,4,.86.86,0,0,1-.29.31,9.27,9.27,0,0,1,1.48-2A8.71,8.71,0,0,1,348.24,175.32Z" transform="translate(-87.19 -32.11)" fill="#dcdcdc"/><path d="M349.13,175.68h27.23a8.74,8.74,0,0,1,5,1.83,8.93,8.93,0,0,1,2.76,3.64,8.7,8.7,0,0,1,.27,5.74,2.76,2.76,0,0,0-.19.75,8.78,8.78,0,0,1-1.13,1.82c-.48.35-.87.8-1.35,1.14a8.89,8.89,0,0,1-5.38,1.85h-26.9a8.79,8.79,0,0,1-8.73-7.89,11.88,11.88,0,0,1,.12-2.92,11.43,11.43,0,0,1,.61-1.67,1,1,0,0,0,.29-.31A8.72,8.72,0,0,1,349.13,175.68Z" transform="translate(-87.19 -32.11)" fill="#ea3031"/><path d="M351.14,177.55h24.45a6.66,6.66,0,0,1,2.3.35,6.19,6.19,0,0,1,3.72,3.65,5.65,5.65,0,0,1,.23,3.23,6.56,6.56,0,0,0-1-4,6.16,6.16,0,0,0-4.16-2.75,11,11,0,0,0-1.9-.08H349.69a6.11,6.11,0,0,0-3.95,1.49,12.14,12.14,0,0,0-1.18,1.3,2.67,2.67,0,0,1,.34-.7,6.16,6.16,0,0,1,3.55-2.36A11.59,11.59,0,0,1,351.14,177.55Z" transform="translate(-87.19 -32.11)" fill="#922123"/><path d="M349.69,178H374.8a10.91,10.91,0,0,1,1.9.08,6.16,6.16,0,0,1,4.17,2.76,6.6,6.6,0,0,1,1,3.95,6,6,0,0,1-.47,1.6,6.1,6.1,0,0,1-5.45,3.72H349.58a5.87,5.87,0,0,1-1.18-.15,6.12,6.12,0,0,1-4.6-7.32l.06-.11a4.94,4.94,0,0,1,.7-1.74,13.07,13.07,0,0,1,1.18-1.29A6.18,6.18,0,0,1,349.69,178Z" transform="translate(-87.19 -32.11)" fill="#591a1b"/><path d="M350.83,179.66h24.88a4.37,4.37,0,0,1,1.49,8.5,7.7,7.7,0,0,1-2.79.22,8,8,0,0,1-.83-.82,4.47,4.47,0,0,0,3.42.29,4,4,0,0,0-2.46-7.7,4.14,4.14,0,0,0-2,1.33,7.45,7.45,0,0,0-1.49-.08h-16.3c-.57,0-1.14,0-1.71,0a4.13,4.13,0,0,0-3-1.44,4,4,0,0,0-3.58,1.87,4.15,4.15,0,0,0-.36,3.6,4.32,4.32,0,0,0,1.54,1.92,4,4,0,0,0,6.28-3.51,5.21,5.21,0,0,0-.56-2,5.28,5.28,0,0,1,2.06,2.77,4.28,4.28,0,0,1-.23,2.62,6.23,6.23,0,0,1-.71,1.12h-4.67a4.36,4.36,0,0,1-1.44-8.51A7.49,7.49,0,0,1,350.83,179.66Z" transform="translate(-87.19 -32.11)" fill="#812123"/><path d="M350,180a4.16,4.16,0,0,1,3,1.45l.36.43a5,5,0,0,1,.55,2,4,4,0,0,1-1.67,3.44,4.07,4.07,0,0,1-4.61.07,4.38,4.38,0,0,1-1.54-1.92,4.19,4.19,0,0,1,.37-3.6A4,4,0,0,1,350,180Z" transform="translate(-87.19 -32.11)" fill="#591a1b"/><path d="M374.53,180.15a4,4,0,0,1,2.46,7.69,4.38,4.38,0,0,1-3.42-.29,4.88,4.88,0,0,1-1.46-1.54,4.08,4.08,0,0,1,.39-4.53,4.14,4.14,0,0,1,2-1.33Z" transform="translate(-87.19 -32.11)" fill="#591a1b"/><path d="M353,181.44c.57,0,1.14,0,1.72,0H371a6.77,6.77,0,0,1,1.49.07,4.06,4.06,0,0,0-.39,4.53,5,5,0,0,0,1.45,1.55,10.83,10.83,0,0,0,.83.83h-1.15c-6.26,0-12.51,0-18.77,0a5.84,5.84,0,0,0,.72-1.13,4.24,4.24,0,0,0,.22-2.61,5.28,5.28,0,0,0-2.05-2.78Z" transform="translate(-87.19 -32.11)" fill="#922123"/><path d="M340.86,181.63a12.47,12.47,0,0,0-.13,2.93,8.79,8.79,0,0,0,8.74,7.89h26.9a8.82,8.82,0,0,0,5.38-1.84c.49-.34.87-.8,1.35-1.15a8.24,8.24,0,0,1-6.62,3.32H349.36a11.38,11.38,0,0,1-1.43,0,8.8,8.8,0,0,1-5.09-2.68A8.72,8.72,0,0,1,340.86,181.63Z" transform="translate(-87.19 -32.11)" fill="#922123"/><path d="M350,181.74a2.3,2.3,0,0,1,2.08,1.64,2.36,2.36,0,0,1-.9,2.58,3.18,3.18,0,0,0,.63-1.29,2.3,2.3,0,0,0-1.66-2.6,2.52,2.52,0,0,0-1.84.28A2.25,2.25,0,0,1,350,181.74Z" transform="translate(-87.19 -32.11)" fill="#dcdcdc"/><path d="M375.58,181.73a2.31,2.31,0,0,1,2.35,2.27,2.27,2.27,0,0,1-.91,1.88H377a2.45,2.45,0,0,0,.63-1.79,2.29,2.29,0,0,0-2.11-2.09,2.73,2.73,0,0,0-1.4.33A2.17,2.17,0,0,1,375.58,181.73Z" transform="translate(-87.19 -32.11)" fill="#dcdcdc"/><path d="M350.17,182.08a2.29,2.29,0,0,1,1.66,2.59,3.11,3.11,0,0,1-.63,1.29,3.23,3.23,0,0,1-1.4.36,2.3,2.3,0,0,1-2.14-1.74,2.35,2.35,0,0,1,.67-2.23A2.47,2.47,0,0,1,350.17,182.08Z" transform="translate(-87.19 -32.11)" fill="#ea3031"/><path d="M375.48,182a2.28,2.28,0,0,1,2.11,2.09,2.45,2.45,0,0,1-.63,1.79H377a2.45,2.45,0,0,1-2,.35,2.31,2.31,0,0,1-1.66-2.46,2.6,2.6,0,0,1,.71-1.43A2.71,2.71,0,0,1,375.48,182Z" transform="translate(-87.19 -32.11)" fill="#ea3031"/><path d="M343.8,182.63a6,6,0,0,0-.15,1.18,6.11,6.11,0,0,0,5.93,6.29h26.34a6.07,6.07,0,0,0,5.44-3.72,3.63,3.63,0,0,1-.63,1.42,6.14,6.14,0,0,1-5,2.75H349.47c-.21,0-.42,0-.63-.05h0a6.12,6.12,0,0,1-5.31-6.84A2.76,2.76,0,0,1,343.8,182.63Z" transform="translate(-87.19 -32.11)" fill="#dcdcdc"/><path d="M343.78,174.53h-9.72l0-.18h10.31l.84,0A2.89,2.89,0,0,1,343.78,174.53Z" transform="translate(-87.19 -32.11)" fill="#ea3031"/><path d="M254.5,203.7c3.94,0,7.9,0,11.84,0a3.59,3.59,0,0,1,.73.05,1.07,1.07,0,0,1,.72,1v5.06c.71,0,1.42,0,2.13,0a10.49,10.49,0,0,1,9.32,13.85,10.37,10.37,0,0,1-3.8,5.11,13,13,0,0,1-1.16,1,6.09,6.09,0,0,1-2.31.88c-.43,0-.85.12-1.28.14H241.58a17,17,0,0,1-1.9-.19,1.11,1.11,0,0,1-.52-.2,3.92,3.92,0,0,1-1-.38,7.15,7.15,0,0,1-1.56-.91c-.32-.28-.7-.48-1-.77a10.49,10.49,0,0,1-3.71-7.29,8.38,8.38,0,0,1,.06-2.12,10.49,10.49,0,0,1,2.88-5.92,3.54,3.54,0,0,0,.35-.42c-2.91,0-5.8,0-8.7,0a1.09,1.09,0,0,1-1.06-1c0-.42,0-.85,0-1.28h-1.61a1.15,1.15,0,0,1-1.13-1c0-.52,0-1,0-1.56s-.07-.82.21-1.16a1.06,1.06,0,0,1,.93-.47h15.87a1.27,1.27,0,0,1,.39-1c.38-.33.8-.23,1.26-.25,4,0,8.07,0,12.08,0,.09-.18.06-.43.17-.62A1.07,1.07,0,0,1,254.5,203.7Z" transform="translate(-87.19 -32.11)" fill="#591a1b"/><path d="M255.21,205.42h10.88v4.4h-.36v-.42c0-1.21,0-2.42,0-3.62H255.21Z" transform="translate(-87.19 -32.11)" fill="#dcdcdc"/><path d="M255.21,205.77h10.51c0,1.21,0,2.41,0,3.62-2.62,0-5.25,0-7.87,0-.88,0-1.77,0-2.65,0Z" transform="translate(-87.19 -32.11)" fill="#ea3031"/><path d="M241.42,206.61H253.5v3.21h-.34v-.07c0-.93,0-1.85,0-2.78h-11.7C241.43,206.85,241.43,206.72,241.42,206.61Z" transform="translate(-87.19 -32.11)" fill="#dcdcdc"/><path d="M241.43,207h11.71c0,.93,0,1.85,0,2.78l-.09-.35a14,14,0,0,0-1.45,0h-9.38l-.79,0C241.46,208.59,241.46,207.78,241.43,207Z" transform="translate(-87.19 -32.11)" fill="#ea3031"/><path d="M224.37,207.82h15.35v.78l-.36,0v-.4q-7.49,0-15,0Z" transform="translate(-87.19 -32.11)" fill="#dcdcdc"/><path d="M224.38,208.18h15v.4c-.67,0-1.36,0-2,0H224.41Z" transform="translate(-87.19 -32.11)" fill="#ea3031"/><path d="M241.45,209.41c.26,0,.52,0,.79,0h9.37c.49,0,1,0,1.46,0,0,.11.05.24.08.35v.06h-11.7A2.84,2.84,0,0,1,241.45,209.41Z" transform="translate(-87.19 -32.11)" fill="#922123"/><path d="M255.21,209.4c.88,0,1.77,0,2.65,0,2.62,0,5.24,0,7.87,0v.43H255.21Z" transform="translate(-87.19 -32.11)" fill="#922123"/><path d="M227.13,210.3c4,0,8,0,12.05,0a3.51,3.51,0,0,1-1.41.4q-5.33,0-10.62,0C227.15,210.56,227.14,210.43,227.13,210.3Z" transform="translate(-87.19 -32.11)" fill="#dcdcdc"/><path d="M241.34,211.57a15.29,15.29,0,0,1,1.79,0h26.33a8.77,8.77,0,0,1,8.59,7.95,9.06,9.06,0,0,1-.73,4.42,3.22,3.22,0,0,1,.19-.74,8.67,8.67,0,0,0-.27-5.75,8.79,8.79,0,0,0-2.75-3.63,8.67,8.67,0,0,0-5-1.84H242.24a8.72,8.72,0,0,0-7.38,4,.83.83,0,0,1-.29.3,9.92,9.92,0,0,1,1.49-2A8.82,8.82,0,0,1,241.34,211.57Z" transform="translate(-87.19 -32.11)" fill="#dcdcdc"/><path d="M242.23,211.94h27.23a8.6,8.6,0,0,1,5,1.83,8.79,8.79,0,0,1,2.75,3.63,8.61,8.61,0,0,1,.27,5.75,3.83,3.83,0,0,0-.19.74,8.74,8.74,0,0,1-1.12,1.82c-.48.35-.87.8-1.35,1.15a8.85,8.85,0,0,1-5.39,1.84H242.57a8.81,8.81,0,0,1-8.74-7.89,12.39,12.39,0,0,1,.13-2.92,11.43,11.43,0,0,1,.61-1.67.86.86,0,0,0,.29-.31A8.68,8.68,0,0,1,242.23,211.94Z" transform="translate(-87.19 -32.11)" fill="#ea3031"/><path d="M244.24,213.8h24.44a6.88,6.88,0,0,1,2.3.36,6.12,6.12,0,0,1,3.72,3.64,5.48,5.48,0,0,1,.23,3.23,6.52,6.52,0,0,0-1-3.95,6.16,6.16,0,0,0-4.17-2.76,11,11,0,0,0-1.9-.07H242.79a6.06,6.06,0,0,0-3.95,1.49,11.23,11.23,0,0,0-1.19,1.29,3.4,3.4,0,0,1,.34-.69,6.18,6.18,0,0,1,3.56-2.37A12.17,12.17,0,0,1,244.24,213.8Z" transform="translate(-87.19 -32.11)" fill="#922123"/><path d="M242.79,214.25H267.9a10.08,10.08,0,0,1,1.9.08,6.07,6.07,0,0,1,4.16,2.75,6.46,6.46,0,0,1,1,3.95,5.9,5.9,0,0,1-.47,1.6,6.07,6.07,0,0,1-5.44,3.72H242.68a6,6,0,0,1-1.19-.15,6.11,6.11,0,0,1-4.59-7.32l.06-.11a5,5,0,0,1,.69-1.73,12.23,12.23,0,0,1,1.19-1.3A6.11,6.11,0,0,1,242.79,214.25Z" transform="translate(-87.19 -32.11)" fill="#591a1b"/><path d="M243.92,215.91h24.89a4.22,4.22,0,0,1,2.27.62,4.36,4.36,0,0,1-.78,7.88,7.93,7.93,0,0,1-2.79.23,8.13,8.13,0,0,1-.83-.83,4.43,4.43,0,0,0,3.42.29,4,4,0,0,0-2.46-7.7,4.19,4.19,0,0,0-2,1.33,6.65,6.65,0,0,0-1.48-.07h-16.3c-.57,0-1.14,0-1.71,0a4.23,4.23,0,0,0-3-1.44,4,4,0,0,0-3.57,1.88,4.18,4.18,0,0,0-.37,3.6,4.38,4.38,0,0,0,1.54,1.92,4,4,0,0,0,6.29-3.52,5.21,5.21,0,0,0-.56-2,5.33,5.33,0,0,1,2.06,2.77,4.28,4.28,0,0,1-.23,2.62,5.48,5.48,0,0,1-.72,1.12H242.9a4.41,4.41,0,0,1-2.05-.44,4.38,4.38,0,0,1,.62-8.06A7.17,7.17,0,0,1,243.92,215.91Z" transform="translate(-87.19 -32.11)" fill="#812123"/><path d="M243.13,216.25a4.13,4.13,0,0,1,3,1.44l.35.43a5.13,5.13,0,0,1,.56,2,4,4,0,0,1-1.68,3.44,4.07,4.07,0,0,1-4.6.08,4.38,4.38,0,0,1-1.54-1.92,4.15,4.15,0,0,1,.37-3.6A4,4,0,0,1,243.13,216.25Z" transform="translate(-87.19 -32.11)" fill="#591a1b"/><path d="M267.62,216.4a4,4,0,0,1,2.46,7.7,4.47,4.47,0,0,1-3.42-.29,5,5,0,0,1-1.45-1.55,4.08,4.08,0,0,1,.38-4.53,4.19,4.19,0,0,1,2-1.33Z" transform="translate(-87.19 -32.11)" fill="#591a1b"/><path d="M246.1,217.7c.57,0,1.14,0,1.71,0h16.3a6.65,6.65,0,0,1,1.48.07,4.07,4.07,0,0,0-.38,4.54,5,5,0,0,0,1.45,1.54,10.83,10.83,0,0,0,.83.83h-1.15c-6.26,0-12.51,0-18.77,0a6.28,6.28,0,0,0,.72-1.12,4.35,4.35,0,0,0,.22-2.62,5.28,5.28,0,0,0-2.06-2.77C246.34,218,246.22,217.84,246.1,217.7Z" transform="translate(-87.19 -32.11)" fill="#922123"/><path d="M234,217.88a12.47,12.47,0,0,0-.13,2.93,8.8,8.8,0,0,0,8.74,7.9h26.89a8.92,8.92,0,0,0,5.39-1.85c.48-.34.87-.8,1.35-1.15a8.28,8.28,0,0,1-6.62,3.32H242.46a11.5,11.5,0,0,1-1.44,0,8.75,8.75,0,0,1-5.08-2.68A8.66,8.66,0,0,1,234,217.88Z" transform="translate(-87.19 -32.11)" fill="#922123"/><path d="M243.12,218a2.28,2.28,0,0,1,2.07,1.64,2.34,2.34,0,0,1-.89,2.58,3.11,3.11,0,0,0,.63-1.29,2.29,2.29,0,0,0-1.67-2.59,2.52,2.52,0,0,0-1.84.27A2.27,2.27,0,0,1,243.12,218Z" transform="translate(-87.19 -32.11)" fill="#dcdcdc"/><path d="M268.68,218a2.32,2.32,0,0,1,1.44,4.16h-.07a2.45,2.45,0,0,0,.64-1.78,2.3,2.3,0,0,0-2.12-2.1,2.69,2.69,0,0,0-1.39.33A2.2,2.2,0,0,1,268.68,218Z" transform="translate(-87.19 -32.11)" fill="#dcdcdc"/><path d="M243.26,218.33a2.3,2.3,0,0,1,1.67,2.6,3.24,3.24,0,0,1-.63,1.29,3.12,3.12,0,0,1-1.4.35,2.29,2.29,0,0,1-2.14-1.73,2.36,2.36,0,0,1,.66-2.24A2.52,2.52,0,0,1,243.26,218.33Z" transform="translate(-87.19 -32.11)" fill="#ea3031"/><path d="M268.57,218.26a2.3,2.3,0,0,1,2.12,2.09,2.45,2.45,0,0,1-.63,1.79h.06a2.45,2.45,0,0,1-2,.35,2.3,2.3,0,0,1-1.65-2.46,2.56,2.56,0,0,1,.71-1.43A2.69,2.69,0,0,1,268.57,218.26Z" transform="translate(-87.19 -32.11)" fill="#ea3031"/><path d="M236.89,218.88a6.8,6.8,0,0,0-.15,1.19,6.12,6.12,0,0,0,5.93,6.29H269a6.13,6.13,0,0,0,5.44-3.72,3.59,3.59,0,0,1-.63,1.41,6.16,6.16,0,0,1-5,2.75H242.56a4.44,4.44,0,0,1-.62-.05h0a6.12,6.12,0,0,1-5.31-6.84A2.61,2.61,0,0,1,236.89,218.88Z" transform="translate(-87.19 -32.11)" fill="#dcdcdc"/><path d="M236.88,210.79h-9.72l0-.18h10.31l.84,0A3.16,3.16,0,0,1,236.88,210.79Z" transform="translate(-87.19 -32.11)" fill="#ea3031"/><path d="M254.5,286.47h11.84a3.59,3.59,0,0,1,.73,0,1.07,1.07,0,0,1,.72,1v5.06c.71,0,1.42,0,2.13,0a10.49,10.49,0,0,1,9.32,13.85,10.37,10.37,0,0,1-3.8,5.11,13,13,0,0,1-1.16.95,6.09,6.09,0,0,1-2.31.88c-.43,0-.85.12-1.28.14H241.58a17,17,0,0,1-1.9-.19,1.11,1.11,0,0,1-.52-.2,3.92,3.92,0,0,1-1-.38,7.15,7.15,0,0,1-1.56-.91c-.32-.28-.7-.48-1-.77a10.49,10.49,0,0,1-3.71-7.29,8.38,8.38,0,0,1,.06-2.12,10.49,10.49,0,0,1,2.88-5.92,4.47,4.47,0,0,0,.35-.41c-2.91,0-5.8,0-8.7,0a1.09,1.09,0,0,1-1.06-1c0-.42,0-.85,0-1.28h-1.61a1.15,1.15,0,0,1-1.13-1c0-.52,0-1,0-1.56s-.07-.82.21-1.16a1.06,1.06,0,0,1,.93-.47h15.87a1.27,1.27,0,0,1,.39-1c.38-.33.8-.23,1.26-.24h12.08c.09-.19.06-.44.17-.63A1.07,1.07,0,0,1,254.5,286.47Z" transform="translate(-87.19 -32.11)" fill="#591a1b"/><path d="M255.21,288.19h10.88v4.4h-.36v-.42c0-1.21,0-2.42,0-3.62H255.21Z" transform="translate(-87.19 -32.11)" fill="#dcdcdc"/><path d="M255.21,288.54h10.51c0,1.21,0,2.41,0,3.62-2.62,0-5.25,0-7.87,0-.88,0-1.77,0-2.65,0Z" transform="translate(-87.19 -32.11)" fill="#ea3031"/><path d="M241.42,289.38H253.5v3.21h-.34v-.07c0-.93,0-1.85,0-2.78h-11.7C241.43,289.62,241.43,289.49,241.42,289.38Z" transform="translate(-87.19 -32.11)" fill="#dcdcdc"/><path d="M241.43,289.74h11.71c0,.93,0,1.85,0,2.78l-.09-.35a14,14,0,0,0-1.45,0h-9.38l-.79,0C241.46,291.36,241.46,290.55,241.43,289.74Z" transform="translate(-87.19 -32.11)" fill="#ea3031"/><path d="M224.37,290.59h15.35v.78l-.36,0V291h-15Z" transform="translate(-87.19 -32.11)" fill="#dcdcdc"/><path d="M224.38,291h15v.4c-.67,0-1.36,0-2,0H224.41Z" transform="translate(-87.19 -32.11)" fill="#ea3031"/><path d="M241.45,292.18c.26,0,.52,0,.79,0h9.37c.49,0,1,0,1.46,0,0,.11.05.24.08.35v.07q-5.85,0-11.7,0A3,3,0,0,1,241.45,292.18Z" transform="translate(-87.19 -32.11)" fill="#922123"/><path d="M255.21,292.17c.88,0,1.77,0,2.65,0,2.62,0,5.24,0,7.87,0v.43H255.21Z" transform="translate(-87.19 -32.11)" fill="#922123"/><path d="M227.13,293.07c4,0,8,0,12.05,0a3.51,3.51,0,0,1-1.41.4H227.15C227.15,293.33,227.14,293.2,227.13,293.07Z" transform="translate(-87.19 -32.11)" fill="#dcdcdc"/><path d="M241.34,294.34a15.29,15.29,0,0,1,1.79,0h26.33a8.77,8.77,0,0,1,8.59,7.95,9.06,9.06,0,0,1-.73,4.42,3.22,3.22,0,0,1,.19-.74,8.67,8.67,0,0,0-.27-5.75,8.79,8.79,0,0,0-2.75-3.63,8.67,8.67,0,0,0-5-1.84H242.24a8.72,8.72,0,0,0-7.38,4,1,1,0,0,1-.29.31,9.72,9.72,0,0,1,1.49-2A8.82,8.82,0,0,1,241.34,294.34Z" transform="translate(-87.19 -32.11)" fill="#dcdcdc"/><path d="M242.23,294.71h27.23a8.6,8.6,0,0,1,5,1.83,8.79,8.79,0,0,1,2.75,3.63,8.61,8.61,0,0,1,.27,5.75,3.83,3.83,0,0,0-.19.74,8.74,8.74,0,0,1-1.12,1.82c-.48.35-.87.8-1.35,1.15a8.85,8.85,0,0,1-5.39,1.84H242.57a8.8,8.8,0,0,1-8.74-7.89,12.39,12.39,0,0,1,.13-2.92,11.43,11.43,0,0,1,.61-1.67.86.86,0,0,0,.29-.31A8.68,8.68,0,0,1,242.23,294.71Z" transform="translate(-87.19 -32.11)" fill="#ea3031"/><path d="M244.24,296.57h24.44a6.88,6.88,0,0,1,2.3.36,6.12,6.12,0,0,1,3.72,3.64,5.49,5.49,0,0,1,.23,3.23,6.52,6.52,0,0,0-1-3.95,6.16,6.16,0,0,0-4.17-2.76,11,11,0,0,0-1.9-.07H242.79a6.06,6.06,0,0,0-3.95,1.49,11.23,11.23,0,0,0-1.19,1.29,3.4,3.4,0,0,1,.34-.69,6.18,6.18,0,0,1,3.56-2.37A12.17,12.17,0,0,1,244.24,296.57Z" transform="translate(-87.19 -32.11)" fill="#922123"/><path d="M242.79,297H267.9a11,11,0,0,1,1.9.08,6.07,6.07,0,0,1,4.16,2.75,6.46,6.46,0,0,1,1,3.95,5.9,5.9,0,0,1-.47,1.6,6.07,6.07,0,0,1-5.44,3.72H242.68a6,6,0,0,1-1.19-.15,6.11,6.11,0,0,1-4.59-7.32l.06-.11a5,5,0,0,1,.69-1.73,12.23,12.23,0,0,1,1.19-1.3A6.11,6.11,0,0,1,242.79,297Z" transform="translate(-87.19 -32.11)" fill="#591a1b"/><path d="M243.92,298.68h24.89a4.22,4.22,0,0,1,2.27.62,4.36,4.36,0,0,1-.78,7.88,7.93,7.93,0,0,1-2.79.23,8.13,8.13,0,0,1-.83-.83,4.43,4.43,0,0,0,3.42.29,4,4,0,0,0-2.46-7.7,4.19,4.19,0,0,0-2,1.33,6.65,6.65,0,0,0-1.48-.07h-16.3c-.57,0-1.14,0-1.71,0a4.23,4.23,0,0,0-3-1.44,4,4,0,0,0-3.57,1.88,4.18,4.18,0,0,0-.37,3.6,4.38,4.38,0,0,0,1.54,1.92A4,4,0,0,0,247,302.9a5.21,5.21,0,0,0-.56-2,5.33,5.33,0,0,1,2.06,2.77,4.28,4.28,0,0,1-.23,2.62,5.84,5.84,0,0,1-.72,1.13H242.9a4.41,4.41,0,0,1-2.05-.44,4.38,4.38,0,0,1,.62-8.06A7.17,7.17,0,0,1,243.92,298.68Z" transform="translate(-87.19 -32.11)" fill="#812123"/><path d="M243.13,299a4.13,4.13,0,0,1,3,1.44l.35.43a5.13,5.13,0,0,1,.56,2,4,4,0,0,1-1.68,3.44,4.07,4.07,0,0,1-4.6.08,4.38,4.38,0,0,1-1.54-1.92,4.15,4.15,0,0,1,.37-3.6A4,4,0,0,1,243.13,299Z" transform="translate(-87.19 -32.11)" fill="#591a1b"/><path d="M267.62,299.17a4,4,0,0,1,2.46,7.7,4.47,4.47,0,0,1-3.42-.29,5,5,0,0,1-1.45-1.55,4.08,4.08,0,0,1,.38-4.53,4.19,4.19,0,0,1,2-1.33Z" transform="translate(-87.19 -32.11)" fill="#591a1b"/><path d="M246.1,300.47c.57-.05,1.14,0,1.71,0h16.3a6.65,6.65,0,0,1,1.48.07,4.07,4.07,0,0,0-.38,4.54,5,5,0,0,0,1.45,1.54,10.83,10.83,0,0,0,.83.83h-1.15c-6.26,0-12.51,0-18.77,0a6.28,6.28,0,0,0,.72-1.12,4.35,4.35,0,0,0,.22-2.62,5.28,5.28,0,0,0-2.06-2.77C246.34,300.75,246.22,300.61,246.1,300.47Z" transform="translate(-87.19 -32.11)" fill="#922123"/><path d="M234,300.65a12.47,12.47,0,0,0-.13,2.93,8.8,8.8,0,0,0,8.74,7.9h26.89a8.92,8.92,0,0,0,5.39-1.85c.48-.34.87-.8,1.35-1.15a8.28,8.28,0,0,1-6.62,3.32H242.46a11.5,11.5,0,0,1-1.44,0,8.75,8.75,0,0,1-5.08-2.68A8.66,8.66,0,0,1,234,300.65Z" transform="translate(-87.19 -32.11)" fill="#922123"/><path d="M243.12,300.76a2.28,2.28,0,0,1,2.07,1.64,2.34,2.34,0,0,1-.89,2.58,3.11,3.11,0,0,0,.63-1.29,2.29,2.29,0,0,0-1.67-2.59,2.52,2.52,0,0,0-1.84.27A2.27,2.27,0,0,1,243.12,300.76Z" transform="translate(-87.19 -32.11)" fill="#dcdcdc"/><path d="M268.68,300.75a2.32,2.32,0,0,1,1.44,4.16h-.07a2.45,2.45,0,0,0,.64-1.78,2.3,2.3,0,0,0-2.12-2.1,2.69,2.69,0,0,0-1.39.33A2.2,2.2,0,0,1,268.68,300.75Z" transform="translate(-87.19 -32.11)" fill="#dcdcdc"/><path d="M243.26,301.1a2.3,2.3,0,0,1,1.67,2.6,3.24,3.24,0,0,1-.63,1.29,3.12,3.12,0,0,1-1.4.35,2.29,2.29,0,0,1-2.14-1.73,2.36,2.36,0,0,1,.66-2.24A2.52,2.52,0,0,1,243.26,301.1Z" transform="translate(-87.19 -32.11)" fill="#ea3031"/><path d="M268.57,301a2.3,2.3,0,0,1,2.12,2.09,2.45,2.45,0,0,1-.63,1.79h.06a2.45,2.45,0,0,1-2,.35,2.3,2.3,0,0,1-1.65-2.46,2.56,2.56,0,0,1,.71-1.43A2.69,2.69,0,0,1,268.57,301Z" transform="translate(-87.19 -32.11)" fill="#ea3031"/><path d="M236.89,301.65a6.8,6.8,0,0,0-.15,1.19,6.12,6.12,0,0,0,5.93,6.29H269a6.13,6.13,0,0,0,5.44-3.72,3.59,3.59,0,0,1-.63,1.41,6.16,6.16,0,0,1-5,2.75H242.56a4.44,4.44,0,0,1-.62-.05h0a6.12,6.12,0,0,1-5.31-6.84A2.61,2.61,0,0,1,236.89,301.65Z" transform="translate(-87.19 -32.11)" fill="#dcdcdc"/><path d="M236.88,293.56h-9.72l0-.18h10.31q.42,0,.84,0A3.16,3.16,0,0,1,236.88,293.56Z" transform="translate(-87.19 -32.11)" fill="#ea3031"/></svg>