<svg xmlns="http://www.w3.org/2000/svg" viewBox="0 0 422.67 242.06"><path d="M81.86,54.84c6.3-.45,12.64,0,19-.27V9.25c-.26-3.84,2.92-7.61,6.44-8.84A31.22,31.22,0,0,1,113.85,0c35.24.06,70.67,0,105.89,0a9.43,9.43,0,0,1,8.12,5.15c1,1.66.76,3.87,1.51,5.55,35.92.07,72.1,0,108.1,0,4.15.11,7.9-.77,11.28,2.23,2.81,2.28,3.25,5.32,3.44,8.73q71,.06,142,0a9.53,9.53,0,0,1,8.32,4.19c2.53,3.09,1.75,6.63,1.9,10.36-.12,4.67.15,9.36-.12,14-.54,5.15-5,8.69-10.06,8.92-4.82.1-9.64,0-14.47,0-.09,3.82.16,7.66-.09,11.48-.31,4.53-4.85,8.84-9.44,8.53-25.92,0-51.81-.14-77.81.08a35.94,35.94,0,0,0,3.07,3.67,93.81,93.81,0,0,1,25.77,53c.65,6.41,1.58,12.59.58,19a93.77,93.77,0,0,1-33.2,65.14c-2.87,2.58-6.26,4.36-9.16,6.89-4,3.47-9.2,5.83-13.92,8.11-3,1.33-5.45,2.91-8.63,3.41a10.14,10.14,0,0,1-4.58,1.84c-5.7.6-11.2,1.54-17,1.65q-126.8.11-253.61.1V54.85Z" transform="translate(-81.74 0.01)" fill="#2b422c"/><path d="M213.45,18.55c-31.33-.07-62.67,0-94,0-.2,10.78,0,21.59-.09,32.38v3.82h-3.27V15.38h97.33Z" transform="translate(-81.74 0.01)" fill="#dcdcdc"/><path d="M213.41,50.94c-7.88-.37-15.8-.1-23.7-.18-23.46.12-46.93-.16-70.38.12.09-10.79-.11-21.6.09-32.38,31.33.09,62.67,0,94,0Q213.42,34.73,213.41,50.94Z" transform="translate(-81.74 0.01)" fill="#65a569"/><path d="M336.62,29.25H231.9c0,8.29,0,16.57-.05,24.85l-.07.6h-3.1V26H336.77C336.71,27,336.66,28.18,336.62,29.25Z" transform="translate(-81.74 0.01)" fill="#dcdcdc"/><path d="M336.58,51c-2.36-.1-4.73-.2-7.09-.2H245.63a125.23,125.23,0,0,0-13,.25c-.28,1-.53,2.1-.77,3.1.09-8.28,0-16.56,0-24.85q52.35-.06,104.72,0C336.36,36.48,336.42,43.72,336.58,51Z" transform="translate(-81.74 0.01)" fill="#65a569"/><path d="M489.12,40q-67-.08-133.91,0v3.65l-3.25.15v-7H489.28Z" transform="translate(-81.74 0.01)" fill="#dcdcdc"/><path d="M489,43.42c-38.5.14-77,0-115.5.06-6.06,0-12.2-.14-18.2.14V40H489.17Z" transform="translate(-81.74 0.01)" fill="#65a569"/><path d="M336.46,54.77q-52.36-.09-104.69,0l.07-.6c.24-1,.49-2.1.77-3.1a125.23,125.23,0,0,1,13-.25h83.85c2.36,0,4.73.1,7.09.2C336.55,52.22,336.51,53.47,336.46,54.77Z" transform="translate(-81.74 0.01)" fill="#518355"/><path d="M213.34,54.7h-94V50.88c23.45-.28,46.92,0,70.38-.12,7.9.08,15.82-.19,23.7.18C213.42,52.2,213.42,53.45,213.34,54.7Z" transform="translate(-81.74 0.01)" fill="#518355"/><path d="M464.46,62.61q-47.49.06-95,0c-4.69.09-8.4-1.89-12.62-3.59,35.91-.14,71.84,0,107.76,0A28.81,28.81,0,0,0,464.46,62.61Z" transform="translate(-81.74 0.01)" fill="#dcdcdc"/><path d="M85.9,69.93H321.42c5.37,0,10.64-.21,16,.48A78.24,78.24,0,0,1,384.7,93.72,83.45,83.45,0,0,1,398,111.92a8,8,0,0,1-2.59-2.76c-14.12-22.06-39.73-36-66-35.54H85.87c-1.38.06-2.76.16-4.13.28V70.12C83.12,70,84.5,70,85.9,69.93Z" transform="translate(-81.74 0.01)" fill="#dcdcdc"/><path d="M86,73.66H329.55c26.18-.52,51.79,13.47,65.91,35.57a8,8,0,0,0,2.59,2.76c2.7,4.49,3.52,10,5.45,14.91.73,8.86,2.51,17.12,1.15,26.12a78.67,78.67,0,0,1-78.23,70.6H85.9c-1.39,0-2.78-.05-4.16-.13V73.94C83.14,73.82,84.55,73.71,86,73.66Z" transform="translate(-81.74 0.01)" fill="#65a569"/><path d="M92.88,90.34H311.52c8.24,0,15.9-.32,24,1.53A55,55,0,0,1,367.33,113a27.21,27.21,0,0,1,3.07,6.21c-3.43-4-6.61-8.11-10.61-11.57a54.51,54.51,0,0,0-35.37-13.33H99.87c-5.75,0-11.28-.29-17,.71l-1.13.22V91.18A61,61,0,0,1,92.88,90.34Z" transform="translate(-81.74 0.01)" fill="#518355"/><path d="M82.9,95.05c5.69-1,11.22-.71,17-.71H324.42a54.52,54.52,0,0,1,35.41,13.38c4,3.46,7.18,7.57,10.61,11.57,2.52,5,5.78,9.93,6.25,15.49l.52,1a55.45,55.45,0,0,1,1.36,10.66,54.64,54.64,0,0,1-53.06,56.17H89.87a50.08,50.08,0,0,1-8.13-.77V95.28Z" transform="translate(-81.74 0.01)" fill="#2b422c"/><path d="M91.74,109.25q111.29.09,222.62,0c7.78.12,14.6-.68,21.93,2a39.54,39.54,0,0,1,26,28.79c4,16.86-5.06,35.59-20.48,43.31a39.71,39.71,0,0,1-18.33,4c-13.93-.08-27.85,0-41.77-.08-2.37-3.26-4.81-6.34-6.43-10.06a38.45,38.45,0,0,1-2-23.4c2.78-10.6,10-18.25,18.41-24.81-2.62,5.82-4.83,11.46-5,18a36,36,0,0,0,15,30.73c11.7,8.69,29.25,9.07,41.19.69,5.92-4.55,11.22-10,13.78-17.18,3.76-10.38,2.82-22.84-3.24-32.19a36.11,36.11,0,0,0-32-16.76c-10.39.32-19.74,5.23-26.6,12.91-5.1-.41-10.2-.32-15.31-.32H133.72c-4.48-.07-8.88-.24-13.3.65a37.46,37.46,0,0,0-18.18-11.89,36.08,36.08,0,0,0-20.5.16v-3.32A38.14,38.14,0,0,1,91.74,109.25Z" transform="translate(-81.74 0.01)" fill="#3d5d3e"/><path d="M110.84,179.88a77.35,77.35,0,0,1-7.42,7.4c-7.36-.07-14.57.73-21.68-1V183C91.55,185.87,101.7,184.35,110.84,179.88Z" transform="translate(-81.74 0.01)" fill="#3d5d3e"/><path d="M353.42,129c6.13,9.37,7,21.83,3.31,32.21-2.56,7.18-7.86,12.63-13.78,17.18-11.94,8.38-29.49,8-41.19-.69a36,36,0,0,1-15-30.73c.17-6.49,2.38-12.13,5-18,1.05-1.29,2.07-2.6,3.14-3.87,6.86-7.68,16.21-12.59,26.6-12.91A36.14,36.14,0,0,1,353.42,129Z" transform="translate(-81.74 0.01)" fill="#2b422c"/><path d="M102.36,113.59l0,0a37.38,37.38,0,0,1,18.2,11.89A36.44,36.44,0,0,1,124,166.05c-3.09,5.81-7.89,9.81-13,13.81-9.17,4.48-19.37,6-29.22,3v-69.1A36,36,0,0,1,102.36,113.59Z" transform="translate(-81.74 0.01)" fill="#2b422c"/><path d="M291.74,129.05c-8.41,6.56-15.63,14.21-18.41,24.81a38.45,38.45,0,0,0,2,23.4c1.62,3.72,4.06,6.8,6.43,10.06-56,.23-111.88,0-167.88.11-3.44,0-6.89-.08-10.33-.14a77.35,77.35,0,0,0,7.42-7.4c5.14-4,9.94-7.95,13-13.81a36.48,36.48,0,0,0-3.45-40.57c4.42-.89,8.82-.72,13.3-.65H279.57c5.11,0,10.21-.09,15.31.32C293.81,126.44,292.79,127.75,291.74,129.05Z" transform="translate(-81.74 0.01)" fill="#426b44"/><path d="M85.9,223.62H326.42a78.67,78.67,0,0,0,78.2-70.6c1.36-9-.42-17.3-1.2-26.16,8.45,25.89.93,55.74-17.65,75.43a78.37,78.37,0,0,1-45.47,24,111.65,111.65,0,0,1-12.81.27H84.9c-1.05.07-2.11.08-3.16.07v-3.14C83.12,223.57,84.51,223.62,85.9,223.62Z" transform="translate(-81.74 0.01)" fill="#518355"/><path d="M336.74,133.26c-5.22-2.61-10.67-4-16.46-2.43-10,2.59-16.91,13-14.91,23.2.63,4.55,3.2,7.82,5.63,11.55a20.93,20.93,0,0,1-8-23.09,20.61,20.61,0,0,1,18.56-14.68A20.36,20.36,0,0,1,336.74,133.26Z" transform="translate(-81.74 0.01)" fill="#dcdcdc"/><path d="M92.92,127.75c4.79.13,10,1.89,13.44,5.43-4-1.88-8-3.33-12.49-2.94a20.49,20.49,0,0,0-12.13,5.2v-4.62A20.58,20.58,0,0,1,92.92,127.75Z" transform="translate(-81.74 0.01)" fill="#dcdcdc"/><path d="M336.74,133.26c5.25,5.28,7.77,12.62,5.94,20a20.49,20.49,0,0,1-19.16,15.52c-4.59.24-8.39-1.47-12.52-3.16-2.43-3.73-5-7-5.63-11.55-2-10.2,4.91-20.61,14.91-23.2C326.07,129.28,331.52,130.65,336.74,133.26Z" transform="translate(-81.74 0.01)" fill="#65a569"/><path d="M93.87,130.23c4.5-.38,8.5,1.07,12.49,3,3.24,3.72,5.77,7.8,6.34,12.8,1.29,9.75-5.38,19.44-14.8,22a21.43,21.43,0,0,1-16.16-2.1V135.41A20.56,20.56,0,0,1,93.87,130.23Z" transform="translate(-81.74 0.01)" fill="#65a569"/><path d="M89.91,202.64H325.55a53.86,53.86,0,0,0,10.58-1.35,54.67,54.67,0,0,0,41.12-65.48c1.71,2.84,1.87,5.92,2.38,9.21a54.79,54.79,0,0,1-47.52,61.18,52.36,52.36,0,0,1-5.59.42q-117.28.06-234.65,0a54.92,54.92,0,0,1-10.13-1.09v-3.67A49.37,49.37,0,0,0,89.91,202.64Z" transform="translate(-81.74 0.01)" fill="#dcdcdc"/><path d="M364.85,62.05c2.51-.13,5-.28,7.51-.28h92.21l-.22,1.62H377.42C373,63.34,369,64,364.85,62.05Z" transform="translate(-81.74 0.01)" fill="#65a569"/></svg>