<svg xmlns="http://www.w3.org/2000/svg" viewBox="0 0 355.78 241.97"><path d="M42.58,25.85a9.55,9.55,0,0,1,8.32-4.19q71,.06,142,0c.19-3.41.63-6.45,3.44-8.73,3.38-3,7.13-2.12,11.28-2.23,36,0,72.18.07,108.1,0,.75-1.68.51-3.89,1.51-5.55A9.43,9.43,0,0,1,325.35,0q35.47,0,71.11,0V242q-93.39,0-186.76-.08c-5.8-.11-11.3-1.05-17-1.65a10.14,10.14,0,0,1-4.58-1.84c-3.18-.5-5.63-2.08-8.63-3.41-4.72-2.28-9.92-4.64-13.92-8.11-2.9-2.53-6.29-4.31-9.16-6.89a93.77,93.77,0,0,1-33.2-65.14c-1-6.41-.07-12.59.58-19a93.81,93.81,0,0,1,25.77-53,37.38,37.38,0,0,0,3.08-3.67c-25.93-.19-51.86-.08-77.78-.08-4.59.31-9.13-4-9.44-8.53-.25-3.82,0-7.66-.09-11.48-4.83,0-9.65.1-14.47,0-5.06-.23-9.52-3.77-10.06-8.92-.27-4.64,0-9.33-.12-14C40.83,32.48,40.05,28.94,42.58,25.85Z" transform="translate(-40.68 -0.03)" fill="#2b422c"/><path d="M331.63,18.53l0-3.17h64.8v3.16Q364,18.49,331.63,18.53Z" transform="translate(-40.68 -0.03)" fill="#dcdcdc"/><path d="M396.46,18.52V50.73c-13.71,0-27.42.06-41.13,0-7.9.08-15.82-.19-23.7.18q0-16.2,0-32.44Q364,18.48,396.46,18.52Z" transform="translate(-40.68 -0.03)" fill="#65a569"/><path d="M208.32,26H316.41V54.68h-3.1l-.07-.6c-.05-8.28-.05-16.56-.05-24.85H208.47C208.43,28.16,208.38,27,208.32,26Z" transform="translate(-40.68 -0.03)" fill="#dcdcdc"/><path d="M208.51,29.23q52.38-.06,104.72,0c0,8.29-.09,16.57,0,24.85-.24-1-.49-2.1-.77-3.1a125.23,125.23,0,0,0-13-.25H215.6c-2.36,0-4.73.1-7.09.2C208.63,43.7,208.73,36.46,208.51,29.23Z" transform="translate(-40.68 -0.03)" fill="#65a569"/><path d="M55.81,36.8H193.13v7l-3.25-.15V40Q123,39.94,56,40Z" transform="translate(-40.68 -0.03)" fill="#dcdcdc"/><path d="M55.92,40H189.83V43.6c-6.05-.28-12.14-.14-18.2-.14-38.5-.06-77,.08-115.5-.06Z" transform="translate(-40.68 -0.03)" fill="#65a569"/><path d="M208.54,51c2.36-.1,4.73-.2,7.09-.2h83.85a125.23,125.23,0,0,1,13,.25c.28,1,.53,2.1.77,3.1l.07.6q-52.33-.09-104.69,0C208.58,53.45,208.54,52.2,208.54,51Z" transform="translate(-40.68 -0.03)" fill="#518355"/><path d="M331.64,50.92c7.88-.37,15.8-.1,23.7-.18,13.71.07,27.41,0,41.12,0v3.94H331.72C331.7,53.43,331.69,52.18,331.64,50.92Z" transform="translate(-40.68 -0.03)" fill="#518355"/><path d="M80.49,59c35.92,0,71.85-.14,107.76,0-4.22,1.7-7.93,3.68-12.62,3.59q-47.52.06-95,0A30.53,30.53,0,0,0,80.49,59Z" transform="translate(-40.68 -0.03)" fill="#dcdcdc"/><path d="M160.35,93.73a78.17,78.17,0,0,1,47.28-23.34c5.36-.69,10.63-.48,16-.48H396.46v3.72H215.63c-26.27-.46-51.88,13.48-66,35.54a8,8,0,0,1-2.59,2.76A83.45,83.45,0,0,1,160.35,93.73Z" transform="translate(-40.68 -0.03)" fill="#dcdcdc"/><path d="M141.59,126.84c1.93-4.91,2.75-10.42,5.45-14.91a8,8,0,0,0,2.59-2.76c14.12-22.06,39.73-36,65.91-35.53H396.46v150H218.63A78.67,78.67,0,0,1,140.44,153C139.08,144,140.86,135.7,141.59,126.84Z" transform="translate(-40.68 -0.03)" fill="#65a569"/><path d="M177.72,113a55,55,0,0,1,31.81-21.14c8.1-1.92,15.8-1.54,24-1.57H396.46v4H220.63a54.49,54.49,0,0,0-35.37,13.33c-4,3.46-7.18,7.57-10.61,11.57A26.8,26.8,0,0,1,177.72,113Z" transform="translate(-40.68 -0.03)" fill="#518355"/><path d="M167.88,135.76l.52-1c.47-5.56,3.73-10.49,6.25-15.49,3.43-4,6.61-8.11,10.61-11.57a54.52,54.52,0,0,1,35.37-13.38H396.46V202.59H219.58a54.64,54.64,0,0,1-51.7-66.83Z" transform="translate(-40.68 -0.03)" fill="#2b422c"/><path d="M182.76,140a39.54,39.54,0,0,1,26-28.79c7.37-2.68,14.19-1.88,22-2q82.88.06,165.73,0v15.58H265.54c-5.11,0-10.21-.09-15.31.32-6.86-7.68-16.21-12.59-26.6-12.91a36.12,36.12,0,0,0-32,16.79c-6.06,9.35-7,21.81-3.24,32.19,2.56,7.18,7.86,12.63,13.78,17.18,11.94,8.38,29.49,8,41.19-.69a36,36,0,0,0,15-30.73c-.17-6.54-2.38-12.18-5-18,8.41,6.56,15.63,14.21,18.41,24.81a38.45,38.45,0,0,1-2,23.4c-1.62,3.72-4.06,6.8-6.43,10.06-13.92.08-27.84,0-41.77.08a39.59,39.59,0,0,1-18.33-4C187.82,175.61,178.76,156.88,182.76,140Z" transform="translate(-40.68 -0.03)" fill="#3d5d3e"/><path d="M223.59,112.19c10.39.32,19.74,5.23,26.6,12.91,1.07,1.27,2.09,2.58,3.14,3.87,2.62,5.87,4.83,11.51,5,18a36,36,0,0,1-15,30.73c-11.7,8.69-29.25,9.07-41.19.69-5.92-4.55-11.22-10-13.78-17.18-3.73-10.38-2.82-22.84,3.27-32.18A36.13,36.13,0,0,1,223.59,112.19Z" transform="translate(-40.68 -0.03)" fill="#2b422c"/><path d="M265.52,124.84H396.46v62.55c-44.37,0-88.72.1-133.13-.09,2.37-3.26,4.81-6.34,6.43-10.06a38.45,38.45,0,0,0,2-23.4c-2.78-10.6-10-18.25-18.41-24.81-1-1.3-2.07-2.61-3.14-3.87C255.31,124.75,260.41,124.84,265.52,124.84Z" transform="translate(-40.68 -0.03)" fill="#426b44"/><path d="M141.62,126.84c-.73,8.86-2.51,17.12-1.15,26.12a78.68,78.68,0,0,0,78.16,70.64H396.46v2.94H217.6c-4.24,0-8.6.22-12.81-.27a78.37,78.37,0,0,1-45.47-24C140.74,182.58,133.22,152.73,141.62,126.84Z" transform="translate(-40.68 -0.03)" fill="#518355"/><path d="M223.53,127.79a20.61,20.61,0,0,1,18.56,14.68,20.93,20.93,0,0,1-8,23.09c2.43-3.73,5-7,5.63-11.55,2-10.2-4.91-20.61-14.91-23.2-5.79-1.57-11.24-.18-16.46,2.43A20.36,20.36,0,0,1,223.53,127.79Z" transform="translate(-40.68 -0.03)" fill="#dcdcdc"/><path d="M224.81,130.85c10,2.59,16.91,13,14.91,23.2-.63,4.55-3.2,7.82-5.63,11.55-4.13,1.69-7.93,3.4-12.52,3.16a20.49,20.49,0,0,1-19.16-15.52c-1.83-7.38.69-14.72,5.94-20C213.57,130.63,219,129.26,224.81,130.85Z" transform="translate(-40.68 -0.03)" fill="#65a569"/><path d="M165.46,145c.51-3.25.67-6.33,2.38-9.17a55.31,55.31,0,0,0-1.35,10.57,54.68,54.68,0,0,0,53,56.26H396.46v4q-89,0-177.89,0a52.36,52.36,0,0,1-5.59-.42h0A54.79,54.79,0,0,1,165.46,145Z" transform="translate(-40.68 -0.03)" fill="#dcdcdc"/><path d="M167.63,63.37H80.74l-.22-1.62h92.21c2.51,0,5,.15,7.51.28C176.09,64,172.09,63.32,167.63,63.37Z" transform="translate(-40.68 -0.03)" fill="#65a569"/></svg>