<svg xmlns="http://www.w3.org/2000/svg" viewBox="0 0 317.37 559.69"><path d="M315.7,505.2a157.09,157.09,0,0,0-13.9-10.4c-4-3.2-8.3-5.6-11.9-9.2-1-6.2-.3-12.5-3-18.1-.8-2-1.5-4.3-3.1-5.8-3.5-3.2-7.4-4.6-11.5-6.6-3.4-1.9-7-3.7-10.4-5.6-1.1-1.9-2.6-3.9-3-6-.3-8.6-.8-17.4-.4-26,.1-2.1,1.2-3.5,2.2-5.3,0-.9.1-1.8.1-2.6-1.9-2.4-3.9-6.3-7-7.1-6.7-2.3-13-4-19-8-7.3-4.7-14.1-10-21.7-14.2a30.76,30.76,0,0,0-14.3-2.8c-6.2,0-10.7,4-16.9,2.9-8.3-1-16.5-5.4-19.6-13.5l-2.3-1.1c-5.8,2.8-12,3.6-17.9,6a165.34,165.34,0,0,0-26.3,10.4c-1.3.7-3.5,1.4-4,2.9-2,5.8-2.2,12.6-4.7,18.2-2.2,4.9-9.6,6.5-13.2,10-2,2.8.1,7.9.1,11.1.4,3.3-2.3,6.2-4.5,8.5s-4.9,3-7.7,4.2a100.27,100.27,0,0,0-13.7,6.4c-2.4,1.5-5,.9-7.7.9-3.6-2.9-7.2-5.7-10.6-8.9-1.8-1.6-1.6-4-1.6-6.2.1-6.9,3.2-14.2,2.4-20.9-1.2-4.6-3.6-9.4-7.2-12.4-3.4-3.2-7.4-5.3-10.5-8.9,0-1.4.1-2.9.1-4.3,6-7.2,9-17,15.6-23.9,1.8-1.8,3.7-3.2,6.4-2.6a26.87,26.87,0,0,1,5.3,2.8c1.6-1.3,3.1-2.6,4.7-3.9-.1-4,.7-7.7-1.4-11.3-2.2-4.3-2.9-9.1-.4-13.4,3.5-6.1,9.4-8.9,14.7-14.4,3.1-8.4,2.9-17.1,5.2-25.8.8-3.6,2.1-7.8,1.6-11.5-3.6-4-7.4-8-11.2-11.8-.8-.9-1.9-1.6-2.3-2.7a32.28,32.28,0,0,1-.5-12c0-5.1,2.9-9.9,5.2-14.4,2.4-3.6,6-4.2,10.1-3.8,2.4,2.6,4.6,5.1,8,6.5,1.9-.5,3-2.2,2-4-1.5-4.1-6.3-6-6.4-10.2,2.8-6.4,5.7-12.8,8.1-19.4,2.4-1.1,4.9-2.9,7.6-1.8,5.7,2.5,10.8,8.4,17,9.8,5.5.1,9.6-3.6,14.3-5.6,4.2-2.3,7.9-4.8,12.7-5.8,2.7-.5,4.8,1.4,6.6,3.1,3.3,3.3,6.7,6.5,10.1,9.8.7,2.8,2.7,6,2.2,8.8-1.3,3.7-4.4,6.2-7.2,8.7-4.4,4-8.5,8.1-12.7,12.3.1,2.8-.5,5.4,1.4,7.8,1.9,3.1,4,6.1,2,9.7a109.38,109.38,0,0,0-9.4,19.5c-1.1,2.8-2.6,5.4-3.1,8.4,5.1,4.4,9.6,10,15.5,13.4,2,1.1,3.2-.6,4.5-1.8,4.1-4.6,8.1-9.3,12.1-13.9,2.8-2.9,4.6-5.9,8.6-7.3,9.1-2.4,18-3,27.3-4.2a75.57,75.57,0,0,0,26-16.8c1.3-3.1,1.4-6.6,2.2-9.8,2.5-8.9,2.9-18.7,3-28,.3-4.5,4-6.4,7.3-8.6,4.7-3.2,10-5.3,14.7-8.6.1-6.5.2-13.1,0-19.6-1.5-2.1-3-4.3-4.5-6.3-2.9-1.6-5.5-3.7-8.5-4.6-4.3-1.4-8.7-1.6-12.9-3.2-3.2-1.1-6.9-1.7-9.9-3.3-5.2-3.9-7.9-10.6-11.8-15-2-5.5-6.1-10.2-10.6-13.9-3-.5-6-1.1-9-.7-5.6,1.1-10.6,5.8-16,7-5.1-.5-10.4-.7-15.5-1.6-3.6-.8-5-3.5-7.1-6.1-4.3,1.1-9.7,3.9-14.1,2.6-2.6-1.5-4.1-4.9-6-7.2-.6-1.5-.7-3.9-2.4-4.5-3.3-2.1-6.4-.7-9.8.2-5.2,1.7-11.5,2.2-16.7.2a41.06,41.06,0,0,1-13.2-12.7c-4.4-5.4-8-11.3-12-17C78.1,97.1,75,95,72,92.6c-4.9-1.2-9.8-.7-14.7-1.4C47.3,88,38.5,80.6,29.5,76a4.62,4.62,0,0,1-2.6-4.4c.6-1.1,1.2-2.1,1.8-3.2a55.43,55.43,0,0,1,7.1.3c6,1.3,10.9,4,16.6,6.5,3.1,1.8,5.9,3.7,9.6,4.3,3.8-2.7,6.4-7.2,11.1-8.6,6.5-1.9,12.5-.7,18.6,1.8s12.5,2.4,18.2,5.8c8.9,4.7,17,11.6,26.1,15.8,4.7-2.4,9.2-5.1,13.9-7.5,3-1.5,5.6-4,8.8-5.1a26.63,26.63,0,0,1,15.9,3.2c3.8,3.2,4.7,8.5,5.9,13,.7,5.1,8.2,5.9,12.1,4.6,5.1-2,9-5.3,13.2-8.8,2.3-2,4.3-3.9,4.9-7,1.1-4.5,4.1-7.8,5.6-12.1,2.4-2.1,5.4-3.6,7.6-5.8,2.4-3.5,1.8-7.9.9-11.9-5.1-3.8-10.3-7.2-15.5-10.8-2.4-1.9-5-2.7-6.4-5.6-1.8-3.4-2.6-7.3-4.1-10.9-2.2-5-3.3-10.6-5.5-15.6-.9-1.8-2.6-2.2-4.4-2.8-2.8-.8-6-2-9-1.7-3.7,2.7-6.9,7-11,9a43,43,0,0,1-23.6-.3c-5.4-2.2-10.6-4.1-15-8-3.4-2.3-5.4-6.1-8.5-8.5a78,78,0,0,0-18.7-1C99.5,4.1,96.7,8.2,93,11.6c-2.8,2.8-4,6-7.8,7.4a104,104,0,0,1-14.4,4.4c-4.9.2-10.6.8-15-1.8-4.5-3.2-5.3-9.1-8.2-12.8C45.4,7,42,5.2,39,6c-4.5.4-7.7,2.8-11.4,5.1-3.9,2.6-6.2,6.2-9.2,9.7-2.5,3-5.6,4.4-8.8,6.5a25.26,25.26,0,0,1-9.1,1V455c2.4.9,5.1,2.3,5.9,4.7,1.4,5.1,4.2,9.5,5.6,14.6,3.9,2.9,9.5,3.1,14,2,4.6-.8,7.6-3.3,11.8-5.2,5.1-3.2,10.7-5.2,16.1-7.8a19.84,19.84,0,0,1,12.7-1.6,6.69,6.69,0,0,1,3.1,2.9c6.8,10.9,13.9,21.5,21,32.2,4.5,7.5,9.4,14.6,14,21.9.9,1.2,1.7,3.1,3.3,3.3,4.6,1.1,9.4,1.4,14,2,6,.8,11.8.3,17.9.9s12.1-.1,18.2.9c4.5.7,8.5-.5,12.6,2.2a35.89,35.89,0,0,0,5.5,12.1,39.11,39.11,0,0,0,12.3-1.4c4.5-1.4,6.8-5.5,10.9-7.2a34.92,34.92,0,0,1,15.4,1c5.3,1.6,10.7,2,16.1,3l3.2,3.1c.5,3.9-.3,8.3.7,12,5,2,9.9,4,15.3,4.8,4.1.7,8,2,12,2.8,8.8-1.5,15.9-9.9,25-8,4.5,1,9,1.3,13.4,2.7,2-.4,4.1-.6,6.1-1.1,2.9-4.7.4-7.9-.5-12.5-.5-3.7,4.4-5.9,6-8.9,3.7-5.3,2.4-10.9,3.4-16.9A32.73,32.73,0,0,0,315.7,505.2Z" transform="translate(0.5 0.47)" fill="#fff" stroke="#000" stroke-miterlimit="10" stroke-width="2" opacity="0.5" style="isolation:isolate"/><path d="M175.2,476.5c.1.2.1.4.2.6h12.1c.5,0,.9-.1,1.3.3a1.28,1.28,0,0,1,.4,1H205a1.05,1.05,0,0,1,.9.5c.3.3.2.7.2,1.2v1.6a1.16,1.16,0,0,1-1.1,1h-1.6V484a1.08,1.08,0,0,1-1,1h-8.7c.1.1.2.3.4.4a10.33,10.33,0,0,1,2.9,5.9,14.77,14.77,0,0,1,.1,2.1,10.4,10.4,0,0,1-3.7,7.3c-.3.3-.7.5-1,.8a5.07,5.07,0,0,1-1.6.9,4.18,4.18,0,0,1-1,.4c-.2.1-.3.2-.5.2a12.25,12.25,0,0,1-1.9.2H158.2c-.4,0-.9-.1-1.3-.1a5,5,0,0,1-2.3-.9,10.65,10.65,0,0,1,4.3-20H161V477a1,1,0,0,1,.7-1h12.6A1.05,1.05,0,0,1,175.2,476.5Z" transform="translate(0.5 0.47)" fill="#2b422c"/><path d="M173.6,478H163.1v4h-.4v-4.4h10.9Z" transform="translate(0.5 0.47)" fill="#dcdcdc"/><path d="M173.6,481.7H163.1v-3.6h10.5Z" transform="translate(0.5 0.47)" fill="#65a569"/><path d="M187.4,479.2H175.7V482h-.3v-3.2h12.1A.76.76,0,0,0,187.4,479.2Z" transform="translate(0.5 0.47)" fill="#dcdcdc"/><path d="M187.4,481.7H175.8l-.1.3v-2.8h11.7A20.83,20.83,0,0,0,187.4,481.7Z" transform="translate(0.5 0.47)" fill="#65a569"/><path d="M204.4,480.4h-15v.4H189V480h15.3Z" transform="translate(0.5 0.47)" fill="#dcdcdc"/><path d="M204.4,480.8H189.5v-.4h15Z" transform="translate(0.5 0.47)" fill="#65a569"/><path d="M187.4,482.1H175.7V482l.1-.4h11.6Z" transform="translate(0.5 0.47)" fill="#518355"/><path d="M173.6,482.1H163.1v-.4h10.5Z" transform="translate(0.5 0.47)" fill="#518355"/><path d="M201.6,483H191a3.26,3.26,0,0,1-1.4-.4h12Z" transform="translate(0.5 0.47)" fill="#dcdcdc"/><path d="M192.7,486.4a9.51,9.51,0,0,1,1.5,2l-.3-.3a8.77,8.77,0,0,0-7.4-4H159.3a8.81,8.81,0,0,0-7.8,5.5,9.57,9.57,0,0,0-.3,5.8c.1.2.1.5.2.7a8.36,8.36,0,0,1-.7-4.4,8.84,8.84,0,0,1,8.6-7.9h26.3a10.87,10.87,0,0,1,1.8.1A8.53,8.53,0,0,1,192.7,486.4Z" transform="translate(0.5 0.47)" fill="#dcdcdc"/><path d="M193.9,488.2l.3.3a8.51,8.51,0,0,1,.6,1.7,9.42,9.42,0,0,1,.1,2.9,8.77,8.77,0,0,1-8.7,7.9H159.3a9,9,0,0,1-5.4-1.8c-.5-.3-.9-.8-1.4-1.1a17.39,17.39,0,0,1-1.1-1.8,1.45,1.45,0,0,0-.2-.7,8.78,8.78,0,0,1,8.1-11.2h27.2A8.15,8.15,0,0,1,193.9,488.2Z" transform="translate(0.5 0.47)" fill="#65a569"/><path d="M187.2,486.2a6.27,6.27,0,0,1,3.6,2.4,2.12,2.12,0,0,1,.3.7,15.38,15.38,0,0,0-1.2-1.3,5.85,5.85,0,0,0-4-1.5H160.8a12.1,12.1,0,0,0-1.9.1,6.36,6.36,0,0,0-5.2,6.8,5.78,5.78,0,0,1,.2-3.2,6,6,0,0,1,3.7-3.6,5.87,5.87,0,0,1,2.3-.4h24.5A8.76,8.76,0,0,1,187.2,486.2Z" transform="translate(0.5 0.47)" fill="#518355"/><path d="M190,488a15.38,15.38,0,0,1,1.2,1.3,5.09,5.09,0,0,1,.7,1.7l.1.1a6,6,0,0,1-4.6,7.3,4.87,4.87,0,0,1-1.2.1H159.9a6,6,0,0,1-5.4-3.7,7.49,7.49,0,0,1-.5-1.6,7,7,0,0,1,1-4,6,6,0,0,1,4.2-2.8,12.1,12.1,0,0,1,1.9-.1H186A7.22,7.22,0,0,1,190,488Z" transform="translate(0.5 0.47)" fill="#2b422c"/><path d="M187.3,488.4a4.41,4.41,0,0,1,2.8,5.5,4.18,4.18,0,0,1-2.2,2.5,4.55,4.55,0,0,1-2,.5h-4.7a4.13,4.13,0,0,1-.7-1.1,4.57,4.57,0,0,1-.2-2.6,5.81,5.81,0,0,1,2.1-2.8,6.64,6.64,0,0,0-.6,2,3.84,3.84,0,0,0,1.7,3.4,4.07,4.07,0,0,0,4.6.1,4,4,0,0,0,1.5-1.9,4.17,4.17,0,0,0-.4-3.6,4.15,4.15,0,0,0-6.6-.5h-18a7.57,7.57,0,0,0-1.5.1,3.9,3.9,0,0,0-2-1.3,4.05,4.05,0,1,0,.9,7.4,6,6,0,0,1-.8.8,8.83,8.83,0,0,1-2.8-.2,4.39,4.39,0,0,1-2.7-5.6,4.2,4.2,0,0,1,4.2-2.9h24.9A10.14,10.14,0,0,1,187.3,488.4Z" transform="translate(0.5 0.47)" fill="#3d5d3e"/><path d="M189.3,490.4a4.17,4.17,0,0,1,.4,3.6,4.71,4.71,0,0,1-1.5,1.9,4,4,0,0,1-5.6-1,3.67,3.67,0,0,1-.7-2.5,3.61,3.61,0,0,1,.6-2c.1-.1.2-.3.4-.4a3.89,3.89,0,0,1,3-1.4A3.93,3.93,0,0,1,189.3,490.4Z" transform="translate(0.5 0.47)" fill="#2b422c"/><path d="M161.2,488.7a3.9,3.9,0,0,1,2,1.3,4.11,4.11,0,0,1,.4,4.5,6.73,6.73,0,0,1-1.4,1.5,4.14,4.14,0,0,1-6-4.8,3.87,3.87,0,0,1,5-2.5Z" transform="translate(0.5 0.47)" fill="#2b422c"/><path d="M182.4,490.4a5.38,5.38,0,0,0-2.1,2.8,3.87,3.87,0,0,0,.3,2.6,4.13,4.13,0,0,0,.7,1.1H161.4a6,6,0,0,0,.8-.8,4,4,0,0,0,1.4-1.5,3.93,3.93,0,0,0-.4-4.5,7.57,7.57,0,0,1,1.5-.1h18Z" transform="translate(0.5 0.47)" fill="#426b44"/><path d="M192.9,498.6a8.78,8.78,0,0,1-5.1,2.7H159.3a8.1,8.1,0,0,1-6.6-3.3,13.44,13.44,0,0,0,1.4,1.1,8.57,8.57,0,0,0,5.4,1.8h26.9a8.7,8.7,0,0,0,8.7-7.9,13.83,13.83,0,0,0-.1-2.9A9.39,9.39,0,0,1,192.9,498.6Z" transform="translate(0.5 0.47)" fill="#518355"/><path d="M187.4,490.9a2.89,2.89,0,0,0-1.8-.3,2.33,2.33,0,0,0-1.7,2.6,3.1,3.1,0,0,0,.6,1.3,2.38,2.38,0,0,1-.9-2.6,2.32,2.32,0,0,1,2.9-1.5,2,2,0,0,1,.9.5Z" transform="translate(0.5 0.47)" fill="#dcdcdc"/><path d="M161.6,490.8a3.19,3.19,0,0,0-1.4-.3,2.34,2.34,0,0,0-2.1,2.1,2.79,2.79,0,0,0,.6,1.8h-.1a2.25,2.25,0,0,1-.4-3.2,2.2,2.2,0,0,1,1.9-.9A2.46,2.46,0,0,1,161.6,490.8Z" transform="translate(0.5 0.47)" fill="#dcdcdc"/><path d="M187.4,490.9a2.31,2.31,0,0,1,.7,2.2,2.14,2.14,0,0,1-2.1,1.7,2.3,2.3,0,0,1-1.4-.4,3.1,3.1,0,0,1-.6-1.3,2.15,2.15,0,0,1,3.4-2.2Z" transform="translate(0.5 0.47)" fill="#65a569"/><path d="M161.6,490.8a2.67,2.67,0,0,1,.7,1.4,2.38,2.38,0,0,1-1.7,2.5,2.36,2.36,0,0,1-2-.3h.1a2.34,2.34,0,0,1,1.5-3.9A3.19,3.19,0,0,1,161.6,490.8Z" transform="translate(0.5 0.47)" fill="#65a569"/><path d="M192.2,492.2a6,6,0,0,1-5.3,6.8H160a6.05,6.05,0,0,1-5-2.8,3.51,3.51,0,0,1-.6-1.4,6,6,0,0,0,5.4,3.7h26.3a6.06,6.06,0,0,0,5.9-6.3,5,5,0,0,0-.2-1.2A1.92,1.92,0,0,1,192.2,492.2Z" transform="translate(0.5 0.47)" fill="#dcdcdc"/><path d="M190.5,482.9h11.1v.2h-9.7A3.4,3.4,0,0,1,190.5,482.9Z" transform="translate(0.5 0.47)" fill="#65a569"/><path d="M175.2,423.3c.1.2.1.4.2.6h12.1c.5,0,.9-.1,1.3.3a1.28,1.28,0,0,1,.4,1H205a1.05,1.05,0,0,1,.9.5c.3.4.2.7.2,1.2v1.6a1.09,1.09,0,0,1-1.1,1h-1.6v1.3a1.08,1.08,0,0,1-1,1h-8.7c.1.1.2.3.4.4a10.33,10.33,0,0,1,2.9,5.9,14.77,14.77,0,0,1,.1,2.1,10.4,10.4,0,0,1-3.7,7.3c-.3.3-.7.5-1,.8a5.07,5.07,0,0,1-1.6.9,3,3,0,0,1-1,.4c-.2.1-.3.2-.5.2a12.25,12.25,0,0,1-1.9.2H158.2c-.4,0-.9-.1-1.3-.1a6.5,6.5,0,0,1-2.3-.9,10.59,10.59,0,0,1-1.2-1,9.92,9.92,0,0,1-3.8-5,10.67,10.67,0,0,1-.5-4.7,10.56,10.56,0,0,1,9.8-9.2H161V424a1,1,0,0,1,.7-1h12.5A.74.74,0,0,1,175.2,423.3Z" transform="translate(0.5 0.47)" fill="#2b422c"/><path d="M173.6,424.8H163.1v4h-.4v-4.4h10.9Z" transform="translate(0.5 0.47)" fill="#dcdcdc"/><path d="M173.6,428.5H163.1v-3.6h10.5Z" transform="translate(0.5 0.47)" fill="#65a569"/><path d="M187.4,426H175.7v2.8h-.3v-3.2h12.1A.76.76,0,0,0,187.4,426Z" transform="translate(0.5 0.47)" fill="#dcdcdc"/><path d="M187.4,428.5H175.8l-.1.4V426h11.7A20.85,20.85,0,0,0,187.4,428.5Z" transform="translate(0.5 0.47)" fill="#65a569"/><path d="M204.4,427.3h-15v.4H189v-.8h15.3Z" transform="translate(0.5 0.47)" fill="#dcdcdc"/><path d="M204.4,427.6H189.5v-.4h15Z" transform="translate(0.5 0.47)" fill="#65a569"/><path d="M187.4,428.9H175.7v-.1l.1-.3h11.6Z" transform="translate(0.5 0.47)" fill="#518355"/><path d="M173.6,428.9H163.1v-.4h10.5Z" transform="translate(0.5 0.47)" fill="#518355"/><path d="M201.6,429.8H191a3.26,3.26,0,0,1-1.4-.4h12Z" transform="translate(0.5 0.47)" fill="#dcdcdc"/><path d="M192.7,433.3a9.51,9.51,0,0,1,1.5,2l-.3-.3a8.77,8.77,0,0,0-7.4-4H159.3a8.8,8.8,0,0,0-8.4,9.1h0a5.22,5.22,0,0,0,.4,2.1,1.88,1.88,0,0,1,.2.8,8.36,8.36,0,0,1-.7-4.4,8.77,8.77,0,0,1,8.6-8h28.1A8,8,0,0,1,192.7,433.3Z" transform="translate(0.5 0.47)" fill="#dcdcdc"/><path d="M193.9,435l.3.3a8.51,8.51,0,0,1,.6,1.7,9.42,9.42,0,0,1,.1,2.9,8.77,8.77,0,0,1-8.7,7.9H159.3a9,9,0,0,1-5.4-1.8c-.5-.3-.9-.8-1.4-1.1a17.39,17.39,0,0,1-1.1-1.8,2.35,2.35,0,0,0-.2-.8,8,8,0,0,1,.3-5.7,8.87,8.87,0,0,1,7.8-5.4h27.2A8.15,8.15,0,0,1,193.9,435Z" transform="translate(0.5 0.47)" fill="#65a569"/><path d="M187.2,433a6.27,6.27,0,0,1,3.6,2.4,1.49,1.49,0,0,1,.3.7,15.38,15.38,0,0,0-1.2-1.3,5.85,5.85,0,0,0-4-1.5H160.8a12.1,12.1,0,0,0-1.9.1,6.38,6.38,0,0,0-4.2,2.8,7,7,0,0,0-1,4,5.78,5.78,0,0,1,.2-3.2,6,6,0,0,1,3.7-3.6,5.87,5.87,0,0,1,2.3-.4h24.5A8.76,8.76,0,0,1,187.2,433Z" transform="translate(0.5 0.47)" fill="#518355"/><path d="M190,434.8a15.38,15.38,0,0,1,1.2,1.3,5.09,5.09,0,0,1,.7,1.7l.1.1a6,6,0,0,1-4.6,7.3h0c-.4.1-.8.1-1.2.2H159.9a6,6,0,0,1-5.4-3.7,7.49,7.49,0,0,1-.5-1.6,6.32,6.32,0,0,1,1-4,6,6,0,0,1,4.2-2.8,12.1,12.1,0,0,1,1.9-.1H186A6.47,6.47,0,0,1,190,434.8Z" transform="translate(0.5 0.47)" fill="#2b422c"/><path d="M187.3,435.2a4.36,4.36,0,0,1-1.4,8.5h-4.7a4.13,4.13,0,0,1-.7-1.1,4.57,4.57,0,0,1-.2-2.6,5.81,5.81,0,0,1,2.1-2.8,6.64,6.64,0,0,0-.6,2,3.73,3.73,0,0,0,1.7,3.4,4.07,4.07,0,0,0,4.6.1,4,4,0,0,0,1.5-1.9,4.17,4.17,0,0,0-.4-3.6,4.15,4.15,0,0,0-6.6-.5h-18a7.57,7.57,0,0,0-1.5.1,3.9,3.9,0,0,0-2-1.3,4.05,4.05,0,1,0,.9,7.4,6,6,0,0,1-.8.8,8.83,8.83,0,0,1-2.8-.2,4.39,4.39,0,0,1-2.7-5.6,4.2,4.2,0,0,1,4.2-2.9h24.9A6.88,6.88,0,0,1,187.3,435.2Z" transform="translate(0.5 0.47)" fill="#3d5d3e"/><path d="M189.3,437.2a4.17,4.17,0,0,1,.4,3.6,4.71,4.71,0,0,1-1.5,1.9,4,4,0,0,1-5.6-1,3.67,3.67,0,0,1-.7-2.5,3.61,3.61,0,0,1,.6-2l.4-.4a4.36,4.36,0,0,1,3-1.5A4.29,4.29,0,0,1,189.3,437.2Z" transform="translate(0.5 0.47)" fill="#2b422c"/><path d="M161.2,435.5a3.9,3.9,0,0,1,2,1.3,4.11,4.11,0,0,1,.4,4.5,6.73,6.73,0,0,1-1.4,1.5,4.14,4.14,0,0,1-6-4.8,3.87,3.87,0,0,1,5-2.5Z" transform="translate(0.5 0.47)" fill="#2b422c"/><path d="M182.4,437.2a5.38,5.38,0,0,0-2.1,2.8,4.57,4.57,0,0,0,.2,2.6,4.13,4.13,0,0,0,.7,1.1H161.3a6,6,0,0,0,.8-.8,4,4,0,0,0,1.4-1.5,3.93,3.93,0,0,0-.4-4.5,7.57,7.57,0,0,1,1.5-.1h18Z" transform="translate(0.5 0.47)" fill="#426b44"/><path d="M192.9,445.4a8.78,8.78,0,0,1-5.1,2.7H159.3a8.1,8.1,0,0,1-6.6-3.3,13.44,13.44,0,0,0,1.4,1.1,8.66,8.66,0,0,0,5.4,1.9h26.9a8.7,8.7,0,0,0,8.7-7.9,13.83,13.83,0,0,0-.1-2.9A9.27,9.27,0,0,1,192.9,445.4Z" transform="translate(0.5 0.47)" fill="#518355"/><path d="M187.4,437.7a2.89,2.89,0,0,0-1.8-.3,2.33,2.33,0,0,0-1.7,2.6,3.1,3.1,0,0,0,.6,1.3,2.38,2.38,0,0,1-.9-2.6,2.32,2.32,0,0,1,2.9-1.5h0a4.05,4.05,0,0,1,.9.5Z" transform="translate(0.5 0.47)" fill="#dcdcdc"/><path d="M161.6,437.7a2.23,2.23,0,0,0-1.4-.3,2.34,2.34,0,0,0-2.1,2.1,2.79,2.79,0,0,0,.6,1.8h-.1a2.25,2.25,0,0,1-.4-3.2,2.2,2.2,0,0,1,1.9-.9A1.65,1.65,0,0,1,161.6,437.7Z" transform="translate(0.5 0.47)" fill="#dcdcdc"/><path d="M187.4,437.7a2.58,2.58,0,0,1,.7,2.2,2.14,2.14,0,0,1-2.1,1.7,2.3,2.3,0,0,1-1.4-.4,3.1,3.1,0,0,1-.6-1.3,2.15,2.15,0,0,1,3.4-2.2Z" transform="translate(0.5 0.47)" fill="#65a569"/><path d="M161.6,437.7a2.67,2.67,0,0,1,.7,1.4,2.46,2.46,0,0,1-1.7,2.5,2.39,2.39,0,0,1-2-.4h.1a2.34,2.34,0,0,1,1.5-3.9A2.3,2.3,0,0,1,161.6,437.7Z" transform="translate(0.5 0.47)" fill="#65a569"/><path d="M192.2,439a6.25,6.25,0,0,1-5.3,6.9H160a6.05,6.05,0,0,1-5-2.8,3.51,3.51,0,0,1-.6-1.4,6,6,0,0,0,5.4,3.7h26.3a6.06,6.06,0,0,0,5.9-6.3,5,5,0,0,0-.2-1.2A1.67,1.67,0,0,1,192.2,439Z" transform="translate(0.5 0.47)" fill="#dcdcdc"/><path d="M190.5,429.7h11.1v.2h-9.7A3.4,3.4,0,0,1,190.5,429.7Z" transform="translate(0.5 0.47)" fill="#65a569"/><path d="M40.6,203.8c.1.2.1.4.2.6H52.9c.5,0,.9-.1,1.3.3a1.28,1.28,0,0,1,.4,1H70.5a1.05,1.05,0,0,1,.9.5c.3.4.2.7.2,1.2V209a1.09,1.09,0,0,1-1.1,1H68.9v1.3a1.08,1.08,0,0,1-1,1H59.2c.1.1.2.3.3.4a10.33,10.33,0,0,1,2.9,5.9,14.77,14.77,0,0,1,.1,2.1,10.4,10.4,0,0,1-3.7,7.3c-.3.3-.7.5-1,.8a5.07,5.07,0,0,1-1.6.9,3,3,0,0,1-1,.4c-.2.1-.3.2-.5.2a12.25,12.25,0,0,1-1.9.2H23.6c-.4,0-.8-.1-1.3-.1a5,5,0,0,1-2.3-.9,10.59,10.59,0,0,1-1.2-1,10.61,10.61,0,0,1-3.8-5.1,10.38,10.38,0,0,1-.5-4.6,10.56,10.56,0,0,1,9.8-9.2h2.1v-5.1a1.09,1.09,0,0,1,.7-1H39.6A.74.74,0,0,1,40.6,203.8Z" transform="translate(0.5 0.47)" fill="#2b422c"/><path d="M39,205.3H28.5v4h-.4V205H39Z" transform="translate(0.5 0.47)" fill="#dcdcdc"/><path d="M39,208.9H28.5v-3.6H39Z" transform="translate(0.5 0.47)" fill="#65a569"/><path d="M52.8,206.5H41.1v2.8h-.3v-3.2H52.9A.6.6,0,0,0,52.8,206.5Z" transform="translate(0.5 0.47)" fill="#dcdcdc"/><path d="M52.8,208.9H41.1l-.1.4v-2.8H52.7A19.27,19.27,0,0,0,52.8,208.9Z" transform="translate(0.5 0.47)" fill="#65a569"/><path d="M69.8,207.7h-15v.4h-.3v-.8H69.8Z" transform="translate(0.5 0.47)" fill="#dcdcdc"/><path d="M69.8,208.1H54.9v-.4h15Z" transform="translate(0.5 0.47)" fill="#65a569"/><path d="M52.7,209.3H41v-.1a.37.37,0,0,1,.1-.3H52.7C52.8,209.1,52.8,209.2,52.7,209.3Z" transform="translate(0.5 0.47)" fill="#518355"/><path d="M39,209.3H28.5v-.4H39Z" transform="translate(0.5 0.47)" fill="#518355"/><path d="M67.1,210.2H56.4a3.26,3.26,0,0,1-1.4-.4H67A.6.6,0,0,0,67.1,210.2Z" transform="translate(0.5 0.47)" fill="#dcdcdc"/><path d="M58.2,213.7a9.51,9.51,0,0,1,1.5,2l-.3-.3a8.77,8.77,0,0,0-7.4-4H24.7a9,9,0,0,0-5,1.8,9.77,9.77,0,0,0-2.8,3.6,9.29,9.29,0,0,0-.3,5.7,1.88,1.88,0,0,1,.2.8,8.36,8.36,0,0,1-.7-4.4,8.77,8.77,0,0,1,8.6-8H52.8A9.15,9.15,0,0,1,58.2,213.7Z" transform="translate(0.5 0.47)" fill="#dcdcdc"/><path d="M59.3,215.4l.3.3a8.51,8.51,0,0,1,.6,1.7,9.42,9.42,0,0,1,.1,2.9,8.77,8.77,0,0,1-8.7,7.9H24.7a9.1,9.1,0,0,1-5.4-1.9c-.5-.3-.9-.8-1.4-1.1a17.39,17.39,0,0,1-1.1-1.8,2.35,2.35,0,0,0-.2-.8,8,8,0,0,1,.3-5.7,8.86,8.86,0,0,1,7.8-5.5H52A8.73,8.73,0,0,1,59.3,215.4Z" transform="translate(0.5 0.47)" fill="#65a569"/><path d="M52.6,213.5a6.27,6.27,0,0,1,3.6,2.4,1.49,1.49,0,0,1,.3.7,15.38,15.38,0,0,0-1.2-1.3,5.85,5.85,0,0,0-4-1.5h-25a12.1,12.1,0,0,0-1.9.1,6.62,6.62,0,0,0-4.2,2.7,6.9,6.9,0,0,0-1,3.9,5.78,5.78,0,0,1,.2-3.2,6,6,0,0,1,3.7-3.6,5.87,5.87,0,0,1,2.3-.4H49.8A12.74,12.74,0,0,1,52.6,213.5Z" transform="translate(0.5 0.47)" fill="#518355"/><path d="M55.4,215.3a6.89,6.89,0,0,1,1.1,1.3,5.09,5.09,0,0,1,.7,1.7l.1.1a6,6,0,0,1-4.6,7.3,4.87,4.87,0,0,1-1.2.1H25.2a6,6,0,0,1-5.4-3.7,7.49,7.49,0,0,1-.5-1.6,6.52,6.52,0,0,1,1-3.9,6,6,0,0,1,4.2-2.8,12.1,12.1,0,0,1,1.9-.1H51.5A6.43,6.43,0,0,1,55.4,215.3Z" transform="translate(0.5 0.47)" fill="#2b422c"/><path d="M52.7,215.7a4.36,4.36,0,0,1,2.9,5.4,4.41,4.41,0,0,1-4.3,3.1H46.6a4.13,4.13,0,0,1-.7-1.1,4.57,4.57,0,0,1-.2-2.6,5.07,5.07,0,0,1,2-2.8,6.64,6.64,0,0,0-.6,2,3.73,3.73,0,0,0,1.7,3.4,4.07,4.07,0,0,0,4.6.1,4,4,0,0,0,1.5-1.9,4.17,4.17,0,0,0-.4-3.6,4.15,4.15,0,0,0-6.6-.5H30.1a7.57,7.57,0,0,0-1.5.1,3.9,3.9,0,0,0-2-1.3,4.05,4.05,0,1,0,.9,7.4,6,6,0,0,1-.8.8,8.83,8.83,0,0,1-2.8-.2,4.32,4.32,0,0,1-2.7-5.5,3.94,3.94,0,0,1,1.9-2.3,4.65,4.65,0,0,1,2.3-.6H50.3A4.89,4.89,0,0,1,52.7,215.7Z" transform="translate(0.5 0.47)" fill="#3d5d3e"/><path d="M54.6,217.7a4.17,4.17,0,0,1,.4,3.6,4.06,4.06,0,0,1-7.1.9,3.67,3.67,0,0,1-.7-2.5,3.61,3.61,0,0,1,.6-2c.1-.1.2-.3.3-.4a3.89,3.89,0,0,1,3-1.4A3.36,3.36,0,0,1,54.6,217.7Z" transform="translate(0.5 0.47)" fill="#2b422c"/><path d="M26.6,215.9a4,4,0,0,1,2.8,4.9,3.55,3.55,0,0,1-.4.9,5.36,5.36,0,0,1-1.5,1.5,4.08,4.08,0,0,1-3.4.3,4,4,0,0,1-2.6-5.1,4.1,4.1,0,0,1,5.1-2.5Z" transform="translate(0.5 0.47)" fill="#2b422c"/><path d="M47.8,217.7a5.38,5.38,0,0,0-2.1,2.8,4.57,4.57,0,0,0,.2,2.6,4.13,4.13,0,0,0,.7,1.1H26.7a6,6,0,0,0,.8-.8,4.63,4.63,0,0,0,1.5-1.6,3.93,3.93,0,0,0-.4-4.5,7.57,7.57,0,0,1,1.5-.1h18Z" transform="translate(0.5 0.47)" fill="#426b44"/><path d="M58.3,225.8a8.78,8.78,0,0,1-5.1,2.7H24.6a8.1,8.1,0,0,1-6.6-3.3,13.44,13.44,0,0,0,1.4,1.1,9.3,9.3,0,0,0,5.4,1.9H51.7a8.7,8.7,0,0,0,8.7-7.9,13.83,13.83,0,0,0-.1-2.9A8.89,8.89,0,0,1,58.3,225.8Z" transform="translate(0.5 0.47)" fill="#518355"/><path d="M52.8,218.1a2.89,2.89,0,0,0-1.8-.3,2.33,2.33,0,0,0-1.7,2.6,3.1,3.1,0,0,0,.6,1.3,2.38,2.38,0,0,1-.9-2.6,2.25,2.25,0,0,1,2.1-1.6A2.72,2.72,0,0,1,52.8,218.1Z" transform="translate(0.5 0.47)" fill="#dcdcdc"/><path d="M27,218.1a2.23,2.23,0,0,0-1.4-.3,2.34,2.34,0,0,0-2.1,2.1,2.79,2.79,0,0,0,.6,1.8H24a2.25,2.25,0,0,1-.4-3.2,2.2,2.2,0,0,1,1.9-.9A1.65,1.65,0,0,1,27,218.1Z" transform="translate(0.5 0.47)" fill="#dcdcdc"/><path d="M52.8,218.1a2.31,2.31,0,0,1,.7,2.2,2.14,2.14,0,0,1-2.1,1.7,2.3,2.3,0,0,1-1.4-.4,3.1,3.1,0,0,1-.6-1.3,2.24,2.24,0,0,1,1.7-2.6A3.81,3.81,0,0,1,52.8,218.1Z" transform="translate(0.5 0.47)" fill="#65a569"/><path d="M27,218.1a2.67,2.67,0,0,1,.7,1.4,2.5,2.5,0,0,1-1.6,2.5,2.39,2.39,0,0,1-2-.4h.1a2.34,2.34,0,0,1,1.5-3.9A6.47,6.47,0,0,1,27,218.1Z" transform="translate(0.5 0.47)" fill="#65a569"/><path d="M57.6,219.4a6.1,6.1,0,0,1-5.3,6.8h0a1.27,1.27,0,0,0-.6.1H25.4a6.05,6.05,0,0,1-5-2.8,3.51,3.51,0,0,1-.6-1.4,6,6,0,0,0,5.4,3.7H51.5a6.06,6.06,0,0,0,5.9-6.3h0a5,5,0,0,0-.2-1.2A7.6,7.6,0,0,1,57.6,219.4Z" transform="translate(0.5 0.47)" fill="#dcdcdc"/><path d="M55.9,210.2H67v.2H57.3A7.84,7.84,0,0,1,55.9,210.2Z" transform="translate(0.5 0.47)" fill="#65a569"/><path d="M118.1,162.2c.1.2.1.4.2.6h12.1c.5,0,.9-.1,1.3.3a1.28,1.28,0,0,1,.4,1H148a1.05,1.05,0,0,1,.9.5c.3.4.2.7.2,1.2v1.6a1.16,1.16,0,0,1-1.1,1h-1.6v1.3a1.08,1.08,0,0,1-1,1h-8.7c.1.1.2.3.4.4A10.33,10.33,0,0,1,140,177a14.77,14.77,0,0,1,.1,2.1,10.4,10.4,0,0,1-3.7,7.3c-.3.3-.7.5-1,.8a5.07,5.07,0,0,1-1.6.9,3,3,0,0,1-1,.4c-.2.1-.3.2-.5.2a12.25,12.25,0,0,1-1.9.2H101c-.4,0-.9-.1-1.3-.1a5,5,0,0,1-2.3-.9l-1.2-.9a10.53,10.53,0,0,1-2.5-14.6,10.69,10.69,0,0,1,8-4.4,14.72,14.72,0,0,1,2.1,0v-5.1a1,1,0,0,1,.7-1c.2,0,.5-.1.7-.1H117A.78.78,0,0,1,118.1,162.2Z" transform="translate(0.5 0.47)" fill="#2b422c"/><path d="M116.5,163.7H106v4.1h-.4v-4.4h10.9Z" transform="translate(0.5 0.47)" fill="#dcdcdc"/><path d="M116.5,167.3H106v-3.6h10.5Z" transform="translate(0.5 0.47)" fill="#65a569"/><path d="M130.3,164.9H118.5v2.8h-.3v-3.2h12.1Z" transform="translate(0.5 0.47)" fill="#dcdcdc"/><path d="M130.3,167.3H118.7l-.1.4v-2.8h11.7A9.64,9.64,0,0,0,130.3,167.3Z" transform="translate(0.5 0.47)" fill="#65a569"/><path d="M147.3,166.1h-15v.4h-.4v-.8h15.4Z" transform="translate(0.5 0.47)" fill="#dcdcdc"/><path d="M147.3,166.5H132.4v-.4h15Z" transform="translate(0.5 0.47)" fill="#65a569"/><path d="M130.2,167.7H118.5v-.1l.1-.4h11.6Z" transform="translate(0.5 0.47)" fill="#518355"/><path d="M116.5,167.7H106v-.4h10.5Z" transform="translate(0.5 0.47)" fill="#518355"/><path d="M144.5,168.6H133.9a3.26,3.26,0,0,1-1.4-.4h12.1A.6.6,0,0,0,144.5,168.6Z" transform="translate(0.5 0.47)" fill="#dcdcdc"/><path d="M135.6,172.1a9.51,9.51,0,0,1,1.5,2l-.3-.3a8.77,8.77,0,0,0-7.4-4H102.2a8.87,8.87,0,0,0-7.8,5.4,9.57,9.57,0,0,0-.3,5.8,1.88,1.88,0,0,1,.2.8,8.36,8.36,0,0,1-.7-4.4,8.69,8.69,0,0,1,8.6-7.9h26.3a10.87,10.87,0,0,1,1.8.1A7.81,7.81,0,0,1,135.6,172.1Z" transform="translate(0.5 0.47)" fill="#dcdcdc"/><path d="M136.8,173.8l.3.3a8.51,8.51,0,0,1,.6,1.7,9.42,9.42,0,0,1,.1,2.9,8.77,8.77,0,0,1-8.7,7.9H102.2a9,9,0,0,1-5.4-1.8c-.5-.3-.9-.8-1.4-1.1a17.39,17.39,0,0,1-1.1-1.8,2.35,2.35,0,0,0-.2-.8,8.78,8.78,0,0,1,8.1-11.2h27.2A8.45,8.45,0,0,1,136.8,173.8Z" transform="translate(0.5 0.47)" fill="#65a569"/><path d="M130.1,171.9a6.27,6.27,0,0,1,3.6,2.4,2.12,2.12,0,0,1,.3.7,15.38,15.38,0,0,0-1.2-1.3,5.85,5.85,0,0,0-4-1.5H103.7a12.1,12.1,0,0,0-1.9.1,6.38,6.38,0,0,0-4.2,2.8,6.9,6.9,0,0,0-1,3.9,5.78,5.78,0,0,1,.2-3.2,6,6,0,0,1,3.7-3.6,5.87,5.87,0,0,1,2.3-.4h24.4A9.19,9.19,0,0,1,130.1,171.9Z" transform="translate(0.5 0.47)" fill="#518355"/><path d="M132.9,173.7a15.38,15.38,0,0,1,1.2,1.3,5.09,5.09,0,0,1,.7,1.7l.1.1a6,6,0,0,1-4.6,7.3h0c-.4.1-.8.1-1.2.2H102.8a6,6,0,0,1-5.4-3.7,7.49,7.49,0,0,1-.5-1.6,6.52,6.52,0,0,1,1-3.9,6,6,0,0,1,4.2-2.8,12.1,12.1,0,0,1,1.9-.1h25.1A5.73,5.73,0,0,1,132.9,173.7Z" transform="translate(0.5 0.47)" fill="#2b422c"/><path d="M130.2,174a4.36,4.36,0,0,1-1.4,8.5h-4.7a4.13,4.13,0,0,1-.7-1.1,4.57,4.57,0,0,1-.2-2.6,5.81,5.81,0,0,1,2.1-2.8,6.64,6.64,0,0,0-.6,2,3.84,3.84,0,0,0,1.7,3.4,4.07,4.07,0,0,0,4.6.1,4,4,0,0,0,1.5-1.9,4.17,4.17,0,0,0-.4-3.6,4.15,4.15,0,0,0-6.6-.5,9.65,9.65,0,0,0-1.7,0H107.5a7.57,7.57,0,0,0-1.5.1,3.9,3.9,0,0,0-2-1.3,4,4,0,0,0-2.5,7.7h0a4.05,4.05,0,0,0,3.4-.3,6,6,0,0,1-.8.8,8.83,8.83,0,0,1-2.8-.2,4.39,4.39,0,0,1-2.7-5.6,4.2,4.2,0,0,1,4.2-2.9h24.9A10.14,10.14,0,0,1,130.2,174Z" transform="translate(0.5 0.47)" fill="#3d5d3e"/><path d="M132.1,176a4.17,4.17,0,0,1,.4,3.6,4.71,4.71,0,0,1-1.5,1.9,4.07,4.07,0,0,1-4.6-.1,4.22,4.22,0,0,1-1.7-3.4,3.61,3.61,0,0,1,.6-2l.4-.4a3.89,3.89,0,0,1,3-1.4A3.72,3.72,0,0,1,132.1,176Z" transform="translate(0.5 0.47)" fill="#2b422c"/><path d="M104.1,174.3a3.9,3.9,0,0,1,2,1.3,4.11,4.11,0,0,1,.4,4.5,6.73,6.73,0,0,1-1.4,1.5,4.14,4.14,0,0,1-6-4.8,3.87,3.87,0,0,1,5-2.5Z" transform="translate(0.5 0.47)" fill="#2b422c"/><path d="M125.2,176a5.38,5.38,0,0,0-2.1,2.8,4.57,4.57,0,0,0,.2,2.6,4.13,4.13,0,0,0,.7,1.1H104.1a6,6,0,0,0,.8-.8,3.64,3.64,0,0,0,1.4-1.6,3.93,3.93,0,0,0-.4-4.5,7.57,7.57,0,0,1,1.5-.1h18Z" transform="translate(0.5 0.47)" fill="#426b44"/><path d="M135.8,184.2a8.78,8.78,0,0,1-5.1,2.7H102.2a8.1,8.1,0,0,1-6.6-3.3,13.44,13.44,0,0,0,1.4,1.1,8.57,8.57,0,0,0,5.4,1.8h26.9a8.7,8.7,0,0,0,8.7-7.9,13.83,13.83,0,0,0-.1-2.9A9.33,9.33,0,0,1,135.8,184.2Z" transform="translate(0.5 0.47)" fill="#518355"/><path d="M130.3,176.5a2.89,2.89,0,0,0-1.8-.3,2.33,2.33,0,0,0-1.7,2.6,3.1,3.1,0,0,0,.6,1.3,2.38,2.38,0,0,1-.9-2.6,2.32,2.32,0,0,1,2.9-1.5,4.05,4.05,0,0,1,.9.5Z" transform="translate(0.5 0.47)" fill="#dcdcdc"/><path d="M104.5,176.5a3.19,3.19,0,0,0-1.4-.3,2.34,2.34,0,0,0-2.1,2.1,2.79,2.79,0,0,0,.6,1.8h-.1a2.25,2.25,0,0,1-.4-3.2,2.2,2.2,0,0,1,1.9-.9A1.74,1.74,0,0,1,104.5,176.5Z" transform="translate(0.5 0.47)" fill="#dcdcdc"/><path d="M130.3,176.5a2.31,2.31,0,0,1,.7,2.2,2.14,2.14,0,0,1-2.1,1.7,2.3,2.3,0,0,1-1.4-.4,3.1,3.1,0,0,1-.6-1.3,2.24,2.24,0,0,1,1.7-2.6A3.81,3.81,0,0,1,130.3,176.5Z" transform="translate(0.5 0.47)" fill="#65a569"/><path d="M104.5,176.5a2.67,2.67,0,0,1,.7,1.4,2.3,2.3,0,0,1-1.6,2.4,2.36,2.36,0,0,1-2-.3h.1a2.34,2.34,0,0,1,1.5-3.9A3.26,3.26,0,0,1,104.5,176.5Z" transform="translate(0.5 0.47)" fill="#65a569"/><path d="M135.1,177.8a6.25,6.25,0,0,1-5.3,6.9H102.9a6.05,6.05,0,0,1-5-2.8,3.51,3.51,0,0,1-.6-1.4,6,6,0,0,0,5.4,3.7H129a6.06,6.06,0,0,0,5.9-6.3c0-.4-.1-.8-.1-1.2A2.28,2.28,0,0,1,135.1,177.8Z" transform="translate(0.5 0.47)" fill="#dcdcdc"/><path d="M133.4,168.5h11.1v.2h-9.7A2.2,2.2,0,0,1,133.4,168.5Z" transform="translate(0.5 0.47)" fill="#65a569"/><path d="M41.6,126.8c.1.2.1.4.2.6H53.9c.5,0,.9-.1,1.3.3a1.28,1.28,0,0,1,.4,1H71.5a1.05,1.05,0,0,1,.9.5c.3.3.2.7.2,1.1v1.6a1.16,1.16,0,0,1-1.1,1H69.9v1.3a.92.92,0,0,1-1,.9H60c.1.1.2.3.3.4a10.33,10.33,0,0,1,2.9,5.9,14.77,14.77,0,0,1,.1,2.1,10.4,10.4,0,0,1-3.7,7.3c-.3.3-.7.5-1,.8a5.07,5.07,0,0,1-1.6.9,4.18,4.18,0,0,1-1,.4.76.76,0,0,1-.5.2,12.25,12.25,0,0,1-1.9.2H24.5c-.4,0-.8-.1-1.3-.1a5,5,0,0,1-2.3-.9l-1.2-.9a10.49,10.49,0,0,1,5.5-19,14.72,14.72,0,0,1,2.1,0v-5.1a1.09,1.09,0,0,1,.7-1H40.6A1.1,1.1,0,0,1,41.6,126.8Z" transform="translate(0.5 0.47)" fill="#2b422c"/><path d="M40,128.3H29.5v4h-.3V128H40.1Z" transform="translate(0.5 0.47)" fill="#dcdcdc"/><path d="M40,132H29.5v-3.6H40Z" transform="translate(0.5 0.47)" fill="#65a569"/><path d="M53.8,129.6H42.1v2.9h-.3v-3.2H53.9C53.8,129.3,53.8,129.5,53.8,129.6Z" transform="translate(0.5 0.47)" fill="#dcdcdc"/><path d="M53.8,132H42.1a.37.37,0,0,1-.1.3v-2.8H53.7A20.9,20.9,0,0,1,53.8,132Z" transform="translate(0.5 0.47)" fill="#65a569"/><path d="M70.8,130.7h-15v.4h-.3v-.8H70.8Z" transform="translate(0.5 0.47)" fill="#dcdcdc"/><path d="M70.8,131.1H55.9v-.4h15Z" transform="translate(0.5 0.47)" fill="#65a569"/><path d="M53.8,132.4H42.1v-.1l.1-.4H53.8Z" transform="translate(0.5 0.47)" fill="#518355"/><path d="M40,132.4H29.5V132H40Z" transform="translate(0.5 0.47)" fill="#518355"/><path d="M68.1,133.3H57.5a3.26,3.26,0,0,1-1.4-.4h12Z" transform="translate(0.5 0.47)" fill="#dcdcdc"/><path d="M59.2,136.7a9.51,9.51,0,0,1,1.5,2l-.3-.3a8.77,8.77,0,0,0-7.4-4H25.8a8.81,8.81,0,0,0-7.8,5.5,9.57,9.57,0,0,0-.3,5.8,1.85,1.85,0,0,1,.2.7,8.79,8.79,0,0,1,4.4-11.6h0a8.08,8.08,0,0,1,3.4-.8H52a10.87,10.87,0,0,1,1.8.1A8.9,8.9,0,0,1,59.2,136.7Z" transform="translate(0.5 0.47)" fill="#dcdcdc"/><path d="M60.4,138.5l.3.3a8.51,8.51,0,0,1,.6,1.7,9.42,9.42,0,0,1,.1,2.9,8.77,8.77,0,0,1-8.7,7.9H25.8a9.7,9.7,0,0,1-5.4-1.8c-.5-.4-.9-.8-1.3-1.1a17.39,17.39,0,0,1-1.1-1.8,1.45,1.45,0,0,0-.2-.7,8.65,8.65,0,0,1,3.1-9.4,8.26,8.26,0,0,1,5-1.8H53A8.37,8.37,0,0,1,60.4,138.5Z" transform="translate(0.5 0.47)" fill="#65a569"/><path d="M53.7,136.6a6.27,6.27,0,0,1,3.6,2.4,1.08,1.08,0,0,1,.3.7,15.38,15.38,0,0,0-1.2-1.3,5.85,5.85,0,0,0-4-1.5H27.3a12.1,12.1,0,0,0-1.9.1,6.36,6.36,0,0,0-5.2,6.8,5.78,5.78,0,0,1,.2-3.2,6,6,0,0,1,3.7-3.6,8.52,8.52,0,0,1,2.3-.4H51A6.15,6.15,0,0,1,53.7,136.6Z" transform="translate(0.5 0.47)" fill="#518355"/><path d="M56.4,138.3a15.38,15.38,0,0,1,1.2,1.3,5.09,5.09,0,0,1,.7,1.7l.1.1a6,6,0,0,1-4.6,7.3h0a4.87,4.87,0,0,1-1.2.1H26.2a6.28,6.28,0,0,1-5.5-3.7,7.49,7.49,0,0,1-.5-1.6,6.32,6.32,0,0,1,1-4,6.16,6.16,0,0,1,4.2-2.8,12.1,12.1,0,0,1,1.9-.1H52.4A7.22,7.22,0,0,1,56.4,138.3Z" transform="translate(0.5 0.47)" fill="#2b422c"/><path d="M53.8,138.7a4.41,4.41,0,0,1,2.8,5.5,4.18,4.18,0,0,1-2.2,2.5,3.44,3.44,0,0,1-2,.4H47.7A6.73,6.73,0,0,1,47,146a4.57,4.57,0,0,1-.2-2.6,5.81,5.81,0,0,1,2.1-2.8,6.64,6.64,0,0,0-.6,2A3.84,3.84,0,0,0,50,146a4.07,4.07,0,0,0,4.6.1,4,4,0,0,0,1.5-1.9,4.17,4.17,0,0,0-.4-3.6,4.15,4.15,0,0,0-6.6-.5h-18a7.57,7.57,0,0,0-1.5.1,3.9,3.9,0,0,0-2-1.3,4,4,0,0,0-2.5,7.7h0a4.05,4.05,0,0,0,3.4-.3,6,6,0,0,1-.8.8,8.83,8.83,0,0,1-2.8-.2,4.32,4.32,0,0,1-2.7-5.5,3.94,3.94,0,0,1,1.9-2.3,4.65,4.65,0,0,1,2.3-.6H51.3A7.07,7.07,0,0,1,53.8,138.7Z" transform="translate(0.5 0.47)" fill="#3d5d3e"/><path d="M55.7,140.7a4.17,4.17,0,0,1,.4,3.6,4.06,4.06,0,0,1-7.1.9,3.67,3.67,0,0,1-.7-2.5,4.66,4.66,0,0,1,.6-2l.3-.4a4.12,4.12,0,0,1,6.5.4Z" transform="translate(0.5 0.47)" fill="#2b422c"/><path d="M27.6,139a3.9,3.9,0,0,1,2,1.3,4.11,4.11,0,0,1,.4,4.5,5.36,5.36,0,0,1-1.5,1.5,4.5,4.5,0,0,1-3.4.3,4.08,4.08,0,0,1-2.6-5.1,4,4,0,0,1,5.1-2.5Z" transform="translate(0.5 0.47)" fill="#2b422c"/><path d="M48.8,140.7a5.38,5.38,0,0,0-2.1,2.8,4.57,4.57,0,0,0,.2,2.6,4.13,4.13,0,0,0,.7,1.1H27.7a6,6,0,0,0,.8-.8,5.36,5.36,0,0,0,1.5-1.5,3.92,3.92,0,0,0-.4-4.5,7.57,7.57,0,0,1,1.5-.1h18Z" transform="translate(0.5 0.47)" fill="#426b44"/><path d="M59.3,148.9a8.26,8.26,0,0,1-5.1,2.7H25.7a8.21,8.21,0,0,1-4.3-1.2,9.55,9.55,0,0,1-2.4-2.1c.5.4.9.8,1.3,1.1a8.57,8.57,0,0,0,5.4,1.8H52.6a8.7,8.7,0,0,0,8.7-7.9,13.83,13.83,0,0,0-.1-2.9A8.55,8.55,0,0,1,59.3,148.9Z" transform="translate(0.5 0.47)" fill="#518355"/><path d="M53.8,141.2a2.89,2.89,0,0,0-1.8-.3,2.33,2.33,0,0,0-1.7,2.6,3.1,3.1,0,0,0,.6,1.3,2.38,2.38,0,0,1-.9-2.6,2.32,2.32,0,0,1,2.9-1.5,2,2,0,0,1,.9.5Z" transform="translate(0.5 0.47)" fill="#dcdcdc"/><path d="M28,141.2a3.19,3.19,0,0,0-1.4-.3,2.34,2.34,0,0,0-2.1,2.1,2.79,2.79,0,0,0,.6,1.8H25a2.36,2.36,0,0,1-.3-3.3,2.83,2.83,0,0,1,1.8-.9A2,2,0,0,1,28,141.2Z" transform="translate(0.5 0.47)" fill="#dcdcdc"/><path d="M53.8,141.2a2.31,2.31,0,0,1,.7,2.2,2.14,2.14,0,0,1-2.1,1.7,2.3,2.3,0,0,1-1.4-.4,3.1,3.1,0,0,1-.6-1.3,2.15,2.15,0,0,1,3.4-2.2Z" transform="translate(0.5 0.47)" fill="#65a569"/><path d="M28,141.2a2.67,2.67,0,0,1,.7,1.4,2.38,2.38,0,0,1-1.7,2.5,2.1,2.1,0,0,1-2-.4h.1a2.34,2.34,0,0,1,1.5-3.9A2.3,2.3,0,0,1,28,141.2Z" transform="translate(0.5 0.47)" fill="#65a569"/><path d="M58.6,142.5a6.08,6.08,0,0,1-5.3,6.8h0a1.27,1.27,0,0,0-.6.1H26.4a6.05,6.05,0,0,1-5-2.8,3.51,3.51,0,0,1-.6-1.4,6,6,0,0,0,5.4,3.7H52.5a6.06,6.06,0,0,0,6-6.2v-.1h0a5,5,0,0,0-.2-1.2A2.28,2.28,0,0,1,58.6,142.5Z" transform="translate(0.5 0.47)" fill="#dcdcdc"/><path d="M56.9,133.2H68v.2H58.3A3.64,3.64,0,0,1,56.9,133.2Z" transform="translate(0.5 0.47)" fill="#65a569"/></svg>