<svg xmlns="http://www.w3.org/2000/svg" viewBox="0 0 510.95 242.04"><path d="M234.42,5.08c1,1.66.76,3.87,1.51,5.55,35.92.12,72.14,0,108.1,0,4.15.11,7.9-.78,11.28,2.23,2.81,2.28,3.25,5.32,3.44,8.73q71,.06,142,0a9.52,9.52,0,0,1,8.32,4.19c2.53,3.09,1.75,6.63,1.9,10.36-.11,4.67.15,9.36-.12,14-.54,5.15-5,8.69-10.06,8.92-4.82.1-9.64,0-14.47,0-.08,3.82.16,7.66-.09,11.48-.31,4.51-4.85,8.84-9.44,8.53-25.92,0-51.85-.11-77.78.08a39.88,39.88,0,0,0,3.08,3.67,93.78,93.78,0,0,1,25.77,53c.65,6.41,1.58,12.59.58,19A93.75,93.75,0,0,1,395.24,220c-2.87,2.58-6.26,4.36-9.16,6.89-4,3.47-9.2,5.83-13.92,8.11-3,1.33-5.45,2.91-8.63,3.41a10.2,10.2,0,0,1-4.58,1.84c-5.7.6-11.2,1.54-17,1.65q-130.2.09-260.43.09c-3.83-.16-7.57-1.07-11.42-1.25-7.87-.68-13.84-4.29-20.65-7.85A107.69,107.69,0,0,1,39,224.41,93.59,93.59,0,0,1,5,178.67,95.44,95.44,0,0,1,.69,136.91,93.78,93.78,0,0,1,88.42,54.8c6.3-.45,12.64,0,19-.27V9.24c-.26-3.87,2.92-7.61,6.44-8.84A30.56,30.56,0,0,1,120.41,0c35.24.06,70.67,0,105.89,0A9.4,9.4,0,0,1,234.42,5.08Z" transform="translate(-0.02 0.02)" fill="#591a1b"/><path d="M220,18.51c-31.33-.07-62.67,0-94,0-.2,10.78,0,21.59-.09,32.38v3.82h-3.27V15.34H220Z" transform="translate(-0.02 0.02)" fill="#dcdcdc"/><path d="M220,50.9c-7.88-.37-15.8-.1-23.7-.18-23.46.08-46.93-.16-70.38.12.06-10.79-.11-21.6.09-32.38,31.33.09,62.67,0,94,0Q220,34.69,220,50.9Z" transform="translate(-0.02 0.02)" fill="#ea3031"/><path d="M343.18,29.21H238.46c0,8.29,0,16.57-.05,24.85l-.07.6h-3.1V26H343.33C343.27,27,343.22,28.14,343.18,29.21Z" transform="translate(-0.02 0.02)" fill="#dcdcdc"/><path d="M343.14,50.91c-2.36-.1-4.73-.18-7.09-.2H252.19a122.62,122.62,0,0,0-13,.25c-.28,1-.53,2.06-.77,3.1.09-8.28,0-16.56.05-24.85q52.35-.09,104.72,0C342.92,36.44,343,43.68,343.14,50.91Z" transform="translate(-0.02 0.02)" fill="#ea3031"/><path d="M495.68,40q-67-.1-133.91,0v3.62l-3.25.15v-7H495.84Z" transform="translate(-0.02 0.02)" fill="#dcdcdc"/><path d="M495.52,43.38c-38.49.14-77,0-115.5.06-6.06,0-12.15-.14-18.2.14V40H495.73Z" transform="translate(-0.02 0.02)" fill="#ea3031"/><path d="M343,54.7q-52.35-.09-104.69,0l.07-.6c.24-1,.49-2.07.77-3.1a122.62,122.62,0,0,1,13-.25H336c2.36,0,4.73.1,7.09.2C343.11,52.18,343.07,53.43,343,54.7Z" transform="translate(-0.02 0.02)" fill="#922123"/><path d="M219.93,54.66h-94V50.84c23.45-.28,46.92,0,70.38-.12,7.9.08,15.82-.19,23.7.18C220,52.16,220,53.41,219.93,54.66Z" transform="translate(-0.02 0.02)" fill="#922123"/><path d="M471,62.54q-47.48.06-95,0c-4.69.09-8.4-1.89-12.62-3.59,35.91-.14,71.84,0,107.76,0C471.05,60.12,471,61.34,471,62.54Z" transform="translate(-0.02 0.02)" fill="#dcdcdc"/><path d="M391.3,93.71a83.21,83.21,0,0,1,13.31,18.2,8.14,8.14,0,0,1-2.59-2.76c-14.12-22.06-39.73-36-66-35.54H92.43A77.64,77.64,0,0,0,47.52,90,79,79,0,0,0,22.91,122.5a77.33,77.33,0,0,0-2.41,51.41,29.44,29.44,0,0,1,1.68,6.66A80.27,80.27,0,0,1,15.66,141,78.4,78.4,0,0,1,92.46,69.9h235.6c5.37,0,10.64-.21,16,.48A78.13,78.13,0,0,1,391.3,93.71Z" transform="translate(-0.02 0.02)" fill="#dcdcdc"/><path d="M402,109.15a8.14,8.14,0,0,0,2.59,2.76c2.7,4.49,3.52,10,5.45,14.91.73,8.86,2.51,17.17,1.15,26.12a78.67,78.67,0,0,1-78.16,70.64H92.46a79,79,0,0,1-48.14-16.5c-4.38-3.06-7.8-7.15-12.12-10.22a79.69,79.69,0,0,1-10.06-16.3,29.44,29.44,0,0,0-1.68-6.66,77.33,77.33,0,0,1,2.41-51.41A78.88,78.88,0,0,1,47.52,90a77.61,77.61,0,0,1,45-16.39H336.11C362.29,73.1,387.9,87.09,402,109.15Z" transform="translate(-0.02 0.02)" fill="#ea3031"/><path d="M342.12,91.87A55,55,0,0,1,373.93,113a26.42,26.42,0,0,1,3.07,6.21c-3.43-4-6.6-8.11-10.61-11.57a54.45,54.45,0,0,0-35.33-13.34H106.43c-5.75,0-11.28-.27-17,.71a54.91,54.91,0,0,0-37.28,24.61c-6.82,10.55-9.29,22.93-8.63,35.38a50.09,50.09,0,0,1,2.08-28.94A55.05,55.05,0,0,1,78.86,93.49,60.72,60.72,0,0,1,99.44,90.3H318.08C326.32,90.33,334,90,342.12,91.87Z" transform="translate(-0.02 0.02)" fill="#922123"/><path d="M366.39,107.68c4,3.46,7.18,7.56,10.61,11.57,2.52,5,5.78,9.93,6.25,15.49l.52,1a54.68,54.68,0,0,1-41.11,65.48,55.62,55.62,0,0,1-10.59,1.35H96.43c-21-.32-40.7-13.9-48.69-33.28A53.89,53.89,0,0,1,43.52,155c-.64-12.44,1.83-24.82,8.68-35.35A54.88,54.88,0,0,1,89.46,95c5.69-1,11.22-.69,17-.71h224.6A54.46,54.46,0,0,1,366.39,107.68Z" transform="translate(-0.02 0.02)" fill="#591a1b"/><path d="M342.89,111.21a39.48,39.48,0,0,1,26,28.79c4,16.86-5.06,35.59-20.48,43.31a39.68,39.68,0,0,1-18.33,4c-13.93-.08-27.85,0-41.77-.08-2.37-3.26-4.81-6.34-6.43-10.06a38.45,38.45,0,0,1-2-23.4c2.78-10.6,10-18.25,18.41-24.81-2.62,5.82-4.83,11.46-5,18a36,36,0,0,0,15,30.73c11.7,8.66,29.25,9.07,41.19.69,5.92-4.55,11.22-10,13.78-17.18C367,150.82,366.08,138.36,360,129a36.1,36.1,0,0,0-32-16.79c-10.39.32-19.74,5.23-26.6,12.91-5.1-.41-10.2-.36-15.31-.32H140.33c-4.48-.07-8.88-.24-13.3.65a37.2,37.2,0,0,0-18.2-11.89,36.16,36.16,0,0,0-22,68.86c10.27,3.55,21,2.1,30.6-2.59a78.52,78.52,0,0,1-7.42,7.4c-8.5-.08-16.81,1-25-2a39.06,39.06,0,0,1-7-70.54,38.26,38.26,0,0,1,20.29-5.49q111.29.07,222.62,0C328.7,109.33,335.52,108.53,342.89,111.21Z" transform="translate(-0.02 0.02)" fill="#812123"/><path d="M360,129c6.09,9.34,7,21.8,3.27,32.18-2.56,7.14-7.86,12.63-13.78,17.18-11.94,8.38-29.49,8-41.19-.69a36,36,0,0,1-15-30.73c.17-6.49,2.38-12.13,5-18,1.05-1.29,2.07-2.6,3.14-3.87,6.86-7.68,16.21-12.59,26.6-12.91A36.12,36.12,0,0,1,360,129Z" transform="translate(-0.02 0.02)" fill="#591a1b"/><path d="M108.88,113.57a37.2,37.2,0,0,1,18.2,11.89A36.46,36.46,0,0,1,130.52,166c-3.09,5.86-7.89,9.81-13,13.81-9.62,4.69-20.33,6.14-30.6,2.59a36.16,36.16,0,0,1,22-68.86Z" transform="translate(-0.02 0.02)" fill="#591a1b"/><path d="M298.3,129c-8.42,6.56-15.63,14.21-18.41,24.81a38.45,38.45,0,0,0,2,23.4c1.62,3.72,4.06,6.8,6.43,10.06-56,.23-111.92,0-167.88.11-3.44,0-6.89-.08-10.33-.14a78.52,78.52,0,0,0,7.42-7.4c5.14-4,9.94-8,13-13.81a36.46,36.46,0,0,0-3.45-40.57c4.42-.89,8.82-.72,13.3-.65H286.13c5.11,0,10.21-.09,15.31.32C300.37,126.4,299.35,127.71,298.3,129Z" transform="translate(-0.02 0.02)" fill="#922123"/><path d="M392.33,202.25a78.43,78.43,0,0,1-45.47,24c-4.21.49-8.57.23-12.81.27H91.46c-13.2.77-26.86-3.88-38.1-10.56-8-4.94-15.88-11.29-21.16-19.14,4.32,3.11,7.74,7.2,12.12,10.26a79,79,0,0,0,48.14,16.5H333.05a78.67,78.67,0,0,0,78.16-70.64c1.36-8.95-.42-17.26-1.15-26.12C418.43,152.71,410.91,182.56,392.33,202.25Z" transform="translate(-0.02 0.02)" fill="#922123"/><path d="M343.3,133.22c-5.22-2.61-10.67-4-16.46-2.43-10,2.59-16.87,13-14.91,23.2.67,4.55,3.2,7.82,5.63,11.55a20.94,20.94,0,0,1-8-23.09,20.58,20.58,0,0,1,18.56-14.68A20.28,20.28,0,0,1,343.3,133.22Z" transform="translate(-0.02 0.02)" fill="#dcdcdc"/><path d="M112.92,133.14c-4-1.88-8-3.33-12.49-2.94a20.56,20.56,0,0,0-18.91,18.73c-.55,6.16,1.92,11.33,5.66,16l-.58-.08a20.68,20.68,0,0,1,12.88-37.14C104.27,127.84,109.52,129.6,112.92,133.14Z" transform="translate(-0.02 0.02)" fill="#dcdcdc"/><path d="M343.3,133.22c5.25,5.28,7.77,12.62,5.94,20a20.49,20.49,0,0,1-19.16,15.52c-4.59.24-8.39-1.47-12.52-3.16-2.43-3.73-5-7-5.63-11.55-2-10.21,4.91-20.61,14.91-23.2C332.63,129.24,338.08,130.61,343.3,133.22Z" transform="translate(-0.02 0.02)" fill="#ea3031"/><path d="M112.92,133.14c3.24,3.72,5.77,7.81,6.34,12.8,1.29,9.75-5.38,19.44-14.8,22-6.21,1.8-12.53.25-17.89-3.1l.58.08c-3.74-4.69-6.21-9.86-5.66-16a20.56,20.56,0,0,1,18.94-18.73C104.93,129.81,108.93,131.26,112.92,133.14Z" transform="translate(-0.02 0.02)" fill="#ea3031"/><path d="M386.19,144.94a54.79,54.79,0,0,1-47.52,61.22,52.17,52.17,0,0,1-5.59.42q-117.27.06-234.65,0a54.92,54.92,0,0,1-45-24.6c-2.34-3.79-5.21-8.15-5.65-12.66,8,19.38,27.69,33,48.69,33.28H332.11a54.68,54.68,0,0,0,51.7-66.83C385.52,138.61,385.68,141.69,386.19,144.94Z" transform="translate(-0.02 0.02)" fill="#dcdcdc"/><path d="M371.41,62c2.51-.13,5-.28,7.5-.28h92.22l-.22,1.62H384C379.56,63.29,375.56,64,371.41,62Z" transform="translate(-0.02 0.02)" fill="#ea3031"/></svg>