<svg xmlns="http://www.w3.org/2000/svg" viewBox="0 0 423.01 242.04"><path d="M442,56.75c-6.3-.45-12.64,0-19-.27V11.17c.26-3.84-2.92-7.61-6.44-8.84a30,30,0,0,0-6.55-.4c-35.24.06-70.67,0-105.89,0A9.37,9.37,0,0,0,296,7c-1,1.66-.76,3.87-1.51,5.55-35.92.12-72.1,0-108.1,0-4.15.11-7.9-.77-11.28,2.23-2.81,2.28-3.25,5.32-3.44,8.73q-71,.06-142,0a9.51,9.51,0,0,0-8.32,4.19c-2.53,3.09-1.75,6.63-1.9,10.36.12,4.67-.15,9.36.12,14,.54,5.15,5,8.69,10.06,8.92,4.82.1,9.64,0,14.47,0,.09,3.82-.16,7.66.09,11.48C44.48,77,49,81.33,53.61,81c25.92,0,51.82-.09,77.82.08a41.65,41.65,0,0,1-3.09,3.67,93.78,93.78,0,0,0-25.77,53c-.65,6.41-1.58,12.59-.58,19A93.74,93.74,0,0,0,135.19,222c2.87,2.58,6.26,4.36,9.16,6.89,4,3.47,9.2,5.83,13.92,8.11,3,1.33,5.45,2.91,8.63,3.41a10.27,10.27,0,0,0,4.58,1.84c5.7.65,11.2,1.54,17,1.65q127,.09,254,.08V56.78Z" transform="translate(-19.42 -1.89)" fill="#591a1b"/><path d="M310.43,17.29h97.36V56.66h-3.27V52.84c-.09-10.79.11-21.6-.09-32.38-31.33,0-62.67-.07-94,0Z" transform="translate(-19.42 -1.89)" fill="#dcdcdc"/><path d="M310.43,20.41c31.33,0,62.67.09,94,0,.2,10.78,0,21.59.09,32.38-23.45-.28-46.92,0-70.38-.12-7.9.08-15.82-.19-23.7.18Q310.43,36.64,310.43,20.41Z" transform="translate(-19.42 -1.89)" fill="#ea3031"/><path d="M187.07,27.93H295.16V56.61h-3.1L292,56c-.05-8.28-.05-16.56-.05-24.85H187.22C187.18,30.09,187.13,28.93,187.07,27.93Z" transform="translate(-19.42 -1.89)" fill="#dcdcdc"/><path d="M187.21,31.16q52.38-.09,104.72,0c.05,8.29,0,16.57.05,24.85-.24-1-.49-2.1-.77-3.1a120,120,0,0,0-13-.25H194.35c-2.36,0-4.73.1-7.09.2C187.43,45.63,187.48,38.39,187.21,31.16Z" transform="translate(-19.42 -1.89)" fill="#ea3031"/><path d="M34.56,38.72H171.88v7l-3.25-.15V41.93q-66.9-.1-133.91,0Z" transform="translate(-19.42 -1.89)" fill="#dcdcdc"/><path d="M34.67,41.93H168.58v3.6c-6.05-.28-12.14-.14-18.2-.14-38.5-.06-77,.08-115.5-.06Z" transform="translate(-19.42 -1.89)" fill="#ea3031"/><path d="M187.31,52.93c2.36-.1,4.73-.2,7.09-.2h83.85a120,120,0,0,1,13,.25c.28,1,.53,2.1.77,3.1l.07.6q-52.35-.09-104.69,0C187.33,55.38,187.29,54.13,187.31,52.93Z" transform="translate(-19.42 -1.89)" fill="#922123"/><path d="M310.43,52.85c7.88-.37,15.8-.1,23.7-.18,23.46.12,46.93-.16,70.38.12v3.82H310.43Z" transform="translate(-19.42 -1.89)" fill="#922123"/><path d="M59.26,60.93c35.92,0,71.85-.14,107.76,0-4.22,1.7-7.93,3.68-12.62,3.59q-47.52.06-95,0A34.87,34.87,0,0,0,59.26,60.93Z" transform="translate(-19.42 -1.89)" fill="#dcdcdc"/><path d="M437.94,71.85H202.34c-5.37,0-10.64-.21-16,.48a78.08,78.08,0,0,0-47.19,23.31,82.65,82.65,0,0,0-13.31,18.2,8.15,8.15,0,0,0,2.59-2.76c14.12-22.06,39.73-36,66-35.54H438c1.49,0,3,.17,4.46.31V72.06C440.94,72,439.45,71.87,437.94,71.85Z" transform="translate(-19.42 -1.89)" fill="#dcdcdc"/><path d="M437.88,75.56H194.29C168.11,75.05,142.5,89,128.4,111.14a8.15,8.15,0,0,1-2.59,2.76c-2.7,4.49-3.52,10-5.45,14.91-.73,8.86-2.51,17.12-1.15,26.12a78.68,78.68,0,0,0,78.16,70.6H437.94c1.5,0,3-.07,4.49-.16V75.87C440.92,75.72,439.4,75.61,437.88,75.56Z" transform="translate(-19.42 -1.89)" fill="#ea3031"/><path d="M431,92.25H212.32c-8.24,0-15.89-.32-24.08,1.55a54.94,54.94,0,0,0-31.81,21.13,26,26,0,0,0-3,6.2c3.43-4,6.61-8.11,10.61-11.57a54.43,54.43,0,0,1,35.33-13.34H424c5.75,0,11.28-.29,17,.71.49.08,1,.19,1.46.28V93.14A59.5,59.5,0,0,0,431,92.25Z" transform="translate(-19.42 -1.89)" fill="#922123"/><path d="M440.94,97c-5.69-1-11.22-.71-17-.71H199.34A54.41,54.41,0,0,0,164,109.63c-4,3.46-7.18,7.57-10.61,11.57-2.52,5-5.78,9.93-6.25,15.49l-.52,1a54.68,54.68,0,0,0,41.11,65.48,55.41,55.41,0,0,0,10.59,1.35H434a49.82,49.82,0,0,0,8.46-.85V97.24C441.93,97.14,441.44,97,440.94,97Z" transform="translate(-19.42 -1.89)" fill="#591a1b"/><path d="M432.1,111.15q-111.3.06-222.62,0c-7.78.13-14.6-.67-21.94,2a39.45,39.45,0,0,0-26,28.79c-4,16.86,5.06,35.59,20.48,43.31a39.66,39.66,0,0,0,18.33,4c13.93-.08,27.85,0,41.77-.08,2.37-3.26,4.81-6.34,6.43-10.06a38.46,38.46,0,0,0,2-23.4c-2.78-10.6-10-18.25-18.41-24.81,2.62,5.82,4.83,11.46,5,18a36,36,0,0,1-15,30.73c-11.7,8.69-29.25,9.07-41.19.69-5.92-4.55-11.22-10-13.78-17.18-3.74-10.38-2.82-22.84,3.26-32.2a36.07,36.07,0,0,1,32-16.77c10.39.32,19.74,5.23,26.6,12.91,5.1-.41,10.2-.32,15.31-.32h145.8c4.48-.07,8.88-.24,13.3.65a37.11,37.11,0,0,1,18.2-11.89,36,36,0,0,1,20.82.26v-3.36A38.18,38.18,0,0,0,432.1,111.15Z" transform="translate(-19.42 -1.89)" fill="#812123"/><path d="M413,181.78a78.53,78.53,0,0,0,7.42,7.4c7.46-.07,14.78.75,22-1.08v-3.36C432.52,187.79,422.24,186.29,413,181.78Z" transform="translate(-19.42 -1.89)" fill="#812123"/><path d="M202.36,114.11c10.39.32,19.74,5.23,26.6,12.91,1.07,1.27,2.09,2.58,3.14,3.87,2.62,5.87,4.83,11.51,5,18a36,36,0,0,1-15,30.73c-11.7,8.69-29.25,9.07-41.19.69-5.92-4.55-11.22-10-13.78-17.18-3.7-10.38-2.82-22.84,3.3-32.2A36.13,36.13,0,0,1,202.36,114.11Z" transform="translate(-19.42 -1.89)" fill="#591a1b"/><path d="M421.48,115.49l0,0a37.11,37.11,0,0,0-18.2,11.89A36.46,36.46,0,0,0,399.88,168c3.09,5.81,7.89,9.81,13,13.81,9.27,4.53,19.6,6,29.55,2.92v-68.9A36,36,0,0,0,421.48,115.49Z" transform="translate(-19.42 -1.89)" fill="#591a1b"/><path d="M229,127.08c5.1-.41,10.2-.32,15.31-.32H390c4.48-.07,8.88-.24,13.3.65A36.46,36.46,0,0,0,399.87,168c3.06,5.81,7.86,9.81,13,13.81a78.53,78.53,0,0,0,7.42,7.4c-3.44.06-6.89.14-10.33.14-56-.11-111.88.12-167.88-.11,2.37-3.26,4.81-6.34,6.43-10.06a38.46,38.46,0,0,0,2-23.4c-2.78-10.6-10-18.25-18.41-24.81C231.05,129.66,230,128.35,229,127.08Z" transform="translate(-19.42 -1.89)" fill="#922123"/><path d="M437.94,225.57H197.35a78.68,78.68,0,0,1-78.16-70.64c-1.36-9,.42-17.3,1.15-26.16-8.37,25.89-.85,55.74,17.73,75.47a78.46,78.46,0,0,0,45.47,24,111.65,111.65,0,0,0,12.81.27H438.94c1.16.06,2.32.08,3.49.06v-3.16C440.94,225.5,439.44,225.56,437.94,225.57Z" transform="translate(-19.42 -1.89)" fill="#922123"/><path d="M202.28,129.72a20.56,20.56,0,0,1,18.56,14.68,20.93,20.93,0,0,1-8,23.09c2.43-3.73,5-7,5.63-11.55,2-10.2-4.91-20.61-14.91-23.2-5.79-1.57-11.24-.18-16.46,2.43A20.27,20.27,0,0,1,202.28,129.72Z" transform="translate(-19.42 -1.89)" fill="#dcdcdc"/><path d="M430.92,129.66c-4.79.13-10,1.89-13.44,5.43,4-1.88,8-3.33,12.49-2.94a20.46,20.46,0,0,1,12.46,5.49v-4.72A20.53,20.53,0,0,0,430.92,129.66Z" transform="translate(-19.42 -1.89)" fill="#dcdcdc"/><path d="M203.56,132.78c10,2.59,16.91,13,14.91,23.2-.63,4.55-3.2,7.82-5.63,11.55-4.13,1.69-7.93,3.4-12.52,3.16a20.49,20.49,0,0,1-19.16-15.52c-1.83-7.38.69-14.72,5.94-20C192.32,132.56,197.77,131.19,203.56,132.78Z" transform="translate(-19.42 -1.89)" fill="#ea3031"/><path d="M430,132.14c-4.54-.38-8.54,1.07-12.49,3-3.24,3.72-5.77,7.8-6.34,12.8-1.29,9.75,5.38,19.44,14.8,22,5.68,1.64,11.44.48,16.49-2.29v-30A20.5,20.5,0,0,0,430,132.14Z" transform="translate(-19.42 -1.89)" fill="#ea3031"/><path d="M433.93,204.55H198.29a54.67,54.67,0,0,1-51.7-66.83c-1.71,2.84-1.87,5.92-2.38,9.21a54.8,54.8,0,0,0,47.52,61.18,52.17,52.17,0,0,0,5.59.42q117.27.06,234.65,0a55.12,55.12,0,0,0,10.46-1.17V203.7A51.34,51.34,0,0,1,433.93,204.55Z" transform="translate(-19.42 -1.89)" fill="#dcdcdc"/><path d="M146.43,65.29H59.49l-.22-1.62h92.22c2.5,0,5,.15,7.5.28C154.84,65.93,150.84,65.24,146.43,65.29Z" transform="translate(-19.42 -1.89)" fill="#ea3031"/></svg>