<svg xmlns="http://www.w3.org/2000/svg" viewBox="0 0 510.96 242.02"><path d="M284.67,0c35.22,0,70.65.06,105.89,0a30.53,30.53,0,0,1,6.55.4c3.52,1.23,6.7,5,6.44,8.84V54.55c6.36.27,12.7-.18,19,.27a93.78,93.78,0,0,1,87.73,82.11A95.42,95.42,0,0,1,506,178.69a93.53,93.53,0,0,1-34,45.74,107.77,107.77,0,0,1-10.45,8.48c-6.81,3.56-12.78,7.17-20.65,7.85-3.85.18-7.59,1.09-11.42,1.25q-130.23,0-260.43-.09c-5.8-.11-11.3-1-17-1.65a10.25,10.25,0,0,1-4.58-1.84c-3.18-.5-5.63-2.08-8.63-3.41-4.72-2.28-9.92-4.64-13.92-8.11-2.9-2.53-6.29-4.31-9.16-6.89a93.78,93.78,0,0,1-33.2-65.18c-1-6.41-.07-12.59.58-19a93.84,93.84,0,0,1,25.77-53A39.88,39.88,0,0,0,112,79.17C86,79,60.1,79.09,34.18,79.09c-4.59.31-9.13-4-9.44-8.53-.25-3.82,0-7.66-.09-11.48-4.83,0-9.65.1-14.47,0C5.12,58.85.66,55.31.12,50.16c-.27-4.64,0-9.33-.12-14,.15-3.73-.63-7.27,1.9-10.36a9.53,9.53,0,0,1,8.32-4.19q71,.06,142,0c.19-3.41.63-6.45,3.44-8.73,3.38-3,7.13-2.12,11.28-2.23,36,0,72.18.12,108.1,0,.75-1.68.51-3.89,1.51-5.55A9.4,9.4,0,0,1,284.67,0Z" transform="translate(0 0.01)" fill="#591a1b"/><path d="M291,15.36h97.36V54.73h-3.27V50.91c-.09-10.79.11-21.6-.09-32.38-31.33,0-62.67-.07-94,0Z" transform="translate(0 0.01)" fill="#dcdcdc"/><path d="M291,18.48c31.33,0,62.67.09,94,0,.2,10.78,0,21.59.09,32.38-23.45-.28-46.92,0-70.38-.12-7.9.08-15.82-.19-23.7.18Q291,34.71,291,18.48Z" transform="translate(0 0.01)" fill="#ea3031"/><path d="M167.64,26H275.73V54.68h-3.1l-.07-.6c-.05-8.28-.05-16.56-.05-24.85H167.79C167.75,28.16,167.7,27,167.64,26Z" transform="translate(0 0.01)" fill="#dcdcdc"/><path d="M167.78,29.23q52.38-.09,104.72,0c.05,8.29,0,16.57.05,24.85-.24-1-.49-2.1-.77-3.1a122.52,122.52,0,0,0-13-.25H174.92c-2.36,0-4.73.1-7.09.2C168,43.7,168.05,36.46,167.78,29.23Z" transform="translate(0 0.01)" fill="#ea3031"/><path d="M15.13,36.79H152.45v7l-3.25-.15V40q-66.9-.1-133.91,0Z" transform="translate(0 0.01)" fill="#dcdcdc"/><path d="M15.24,40H149.15V43.6c-6.05-.28-12.14-.14-18.2-.14-38.5-.06-77,.08-115.5-.06Z" transform="translate(0 0.01)" fill="#ea3031"/><path d="M167.88,51c2.36-.1,4.73-.2,7.09-.2h83.85a122.52,122.52,0,0,1,13,.25c.28,1,.53,2.1.77,3.1l.07.6q-52.34-.09-104.69,0C167.9,53.45,167.86,52.2,167.88,51Z" transform="translate(0 0.01)" fill="#922123"/><path d="M291,50.92c7.88-.37,15.8-.1,23.7-.18,23.46.12,46.93-.16,70.38.12v3.82H291C291,53.43,291,52.18,291,50.92Z" transform="translate(0 0.01)" fill="#922123"/><path d="M39.83,59c35.92,0,71.85-.14,107.76,0-4.22,1.7-7.93,3.68-12.62,3.59q-47.52.06-95,0C40,61.36,39.92,60.14,39.83,59Z" transform="translate(0 0.01)" fill="#dcdcdc"/><path d="M166.91,70.4c5.36-.69,10.63-.48,16-.48h235.6a78.39,78.39,0,0,1,76.8,71.1,80.23,80.23,0,0,1-6.52,39.57,30,30,0,0,1,1.68-6.66,77.33,77.33,0,0,0-2.41-51.41A79,79,0,0,0,463.45,90a77.62,77.62,0,0,0-44.91-16.39H175c-26.27-.46-51.88,13.48-66,35.54a8.05,8.05,0,0,1-2.59,2.76,83.21,83.21,0,0,1,13.31-18.2A78.13,78.13,0,0,1,166.91,70.4Z" transform="translate(0 0.01)" fill="#dcdcdc"/><path d="M174.86,73.63H418.45a77.56,77.56,0,0,1,45,16.39,78.77,78.77,0,0,1,24.65,32.49,77.33,77.33,0,0,1,2.41,51.41,30,30,0,0,0-1.68,6.66,79.26,79.26,0,0,1-10.06,16.3C474.45,200,471,204,466.65,207.1a79,79,0,0,1-48.14,16.5H177.94A78.68,78.68,0,0,1,99.78,153c-1.36-9,.42-17.26,1.15-26.12,1.93-4.91,2.75-10.42,5.45-14.91a8.05,8.05,0,0,0,2.59-2.76C123.07,87.11,148.68,73.12,174.86,73.63Z" transform="translate(0 0.01)" fill="#ea3031"/><path d="M192.89,90.32H411.53a60.68,60.68,0,0,1,20.58,3.19,55,55,0,0,1,33.26,32.57A50,50,0,0,1,467.45,155c.66-12.45-1.81-24.83-8.63-35.38A54.86,54.86,0,0,0,421.54,95c-5.72-1-11.25-.71-17-.71H179.91a54.45,54.45,0,0,0-35.33,13.34c-4,3.46-7.18,7.57-10.61,11.57A26.61,26.61,0,0,1,137,113a55,55,0,0,1,31.81-21.13C177,90,184.65,90.35,192.89,90.32Z" transform="translate(0 0.01)" fill="#922123"/><path d="M179.91,94.31h224.6c5.78,0,11.31-.29,17,.71a54.86,54.86,0,0,1,37.26,24.65c6.85,10.53,9.32,22.91,8.68,35.35a53.18,53.18,0,0,1-4.22,14.29c-8,19.38-27.69,33-48.69,33.28H178.9a55.62,55.62,0,0,1-10.59-1.35,54.68,54.68,0,0,1-41.11-65.48l.52-1c.47-5.56,3.73-10.49,6.25-15.49,3.43-4,6.61-8.11,10.61-11.57A54.45,54.45,0,0,1,179.91,94.31Z" transform="translate(0 0.01)" fill="#591a1b"/><path d="M190.05,109.22q111.33.07,222.62,0A38.21,38.21,0,0,1,433,114.71a39.06,39.06,0,0,1-7,70.54c-8.19,3-16.5,1.92-25,2a79.73,79.73,0,0,1-7.42-7.4c9.6,4.69,20.33,6.14,30.6,2.59a36.16,36.16,0,0,0-22-68.86,37.2,37.2,0,0,0-18.2,11.89c-4.42-.89-8.82-.72-13.3-.65H224.88c-5.11,0-10.21-.09-15.31.32-6.86-7.68-16.21-12.59-26.6-12.91A36.1,36.1,0,0,0,151,129c-6.08,9.36-7,21.82-3.26,32.2,2.56,7.18,7.86,12.63,13.78,17.18,11.94,8.38,29.49,8,41.19-.69a36,36,0,0,0,15-30.73c-.17-6.54-2.38-12.18-5-18,8.41,6.56,15.63,14.21,18.41,24.81a38.45,38.45,0,0,1-2,23.4c-1.62,3.72-4.06,6.8-6.43,10.06-13.92.08-27.84,0-41.77.08a39.71,39.71,0,0,1-18.33-4c-15.42-7.72-24.48-26.45-20.48-43.31a39.47,39.47,0,0,1,26-28.79C175.45,108.55,182.27,109.35,190.05,109.22Z" transform="translate(0 0.01)" fill="#812123"/><path d="M182.93,112.18c10.39.32,19.74,5.23,26.6,12.91,1.07,1.27,2.09,2.58,3.14,3.87,2.62,5.87,4.83,11.51,5,18a36,36,0,0,1-15,30.73c-11.7,8.69-29.25,9.07-41.19.69-5.92-4.55-11.22-10-13.78-17.18C144,150.82,144.88,138.36,151,129A36.13,36.13,0,0,1,182.93,112.18Z" transform="translate(0 0.01)" fill="#591a1b"/><path d="M402.05,113.56a36.16,36.16,0,0,1,22,68.86c-10.27,3.55-21,2.1-30.6-2.59-5.11-4-9.91-8-13-13.81a36.46,36.46,0,0,1,3.44-40.54,37.2,37.2,0,0,1,18.2-11.89Z" transform="translate(0 0.01)" fill="#591a1b"/><path d="M209.53,125.15c5.1-.41,10.2-.32,15.31-.32H370.59c4.48-.07,8.88-.24,13.3.65a36.47,36.47,0,0,0-3.45,40.57c3.06,5.81,7.86,9.81,13,13.81a79.73,79.73,0,0,0,7.42,7.4c-3.44.06-6.89.14-10.33.14-56-.11-111.88.12-167.88-.11,2.37-3.26,4.81-6.34,6.43-10.06a38.45,38.45,0,0,0,2-23.4c-2.78-10.6-10-18.25-18.41-24.81C211.62,127.73,210.6,126.42,209.53,125.15Z" transform="translate(0 0.01)" fill="#922123"/><path d="M100.91,126.84C100.18,135.7,98.4,144,99.76,153a78.68,78.68,0,0,0,78.16,70.64H418.51a79,79,0,0,0,48.14-16.5c4.38-3.06,7.8-7.15,12.12-10.26-5.28,7.85-13.16,14.2-21.16,19.14-11.24,6.68-24.9,11.33-38.1,10.56H176.92c-4.24,0-8.6.22-12.81-.27a78.43,78.43,0,0,1-45.47-24C100.06,182.58,92.54,152.73,100.91,126.84Z" transform="translate(0 0.01)" fill="#922123"/><path d="M182.85,127.79a20.56,20.56,0,0,1,18.56,14.68,20.93,20.93,0,0,1-8,23.09c2.43-3.73,5-7,5.63-11.55,2-10.2-4.91-20.61-14.91-23.2-5.79-1.57-11.24-.18-16.46,2.43A20.28,20.28,0,0,1,182.85,127.79Z" transform="translate(0 0.01)" fill="#dcdcdc"/><path d="M411.49,127.73a20.68,20.68,0,0,1,12.88,37.14l-.58.08c3.74-4.67,6.21-9.84,5.66-16a20.55,20.55,0,0,0-18.91-18.73c-4.49-.39-8.49,1.06-12.49,2.94C401.45,129.62,406.7,127.86,411.49,127.73Z" transform="translate(0 0.01)" fill="#dcdcdc"/><path d="M184.13,130.85c10,2.59,16.91,13,14.91,23.2-.63,4.55-3.2,7.82-5.63,11.55-4.13,1.69-7.93,3.4-12.52,3.16a20.49,20.49,0,0,1-19.16-15.52c-1.83-7.38.69-14.72,5.94-20C172.89,130.63,178.34,129.26,184.13,130.85Z" transform="translate(0 0.01)" fill="#ea3031"/><path d="M410.54,130.21a20.56,20.56,0,0,1,18.94,18.73c.55,6.14-1.92,11.31-5.66,16l.58-.08c-5.36,3.35-11.68,4.9-17.89,3.1-9.42-2.56-16.09-12.25-14.8-22,.57-5,3.1-9.08,6.34-12.8C402,131.28,406,129.83,410.54,130.21Z" transform="translate(0 0.01)" fill="#ea3031"/><path d="M127.16,135.79a55.31,55.31,0,0,0-1.35,10.57,54.69,54.69,0,0,0,53.05,56.26H414.5c21-.28,40.69-13.9,48.69-33.28-.44,4.51-3.31,8.87-5.65,12.66a54.9,54.9,0,0,1-45,24.6q-117.37.06-234.65,0a52.36,52.36,0,0,1-5.59-.42h0A54.8,54.8,0,0,1,124.78,145C125.29,141.71,125.45,138.63,127.16,135.79Z" transform="translate(0 0.01)" fill="#dcdcdc"/><path d="M127,63.36H40.06l-.22-1.62h92.22c2.5,0,5,.15,7.5.28C135.41,64,131.41,63.31,127,63.36Z" transform="translate(0 0.01)" fill="#ea3031"/></svg>