<svg xmlns="http://www.w3.org/2000/svg" viewBox="0 0 355.78 241.96"><path d="M466.67,25.82a9.51,9.51,0,0,0-8.32-4.19q-71,.06-142,0c-.19-3.41-.63-6.45-3.44-8.73-3.38-3-7.13-2.12-11.28-2.23-36,0-72.18.12-108.1,0C192.78,9,193,6.78,192,5.12A9.38,9.38,0,0,0,183.9,0l-71.1,0V242q93.38,0,186.75-.06c5.8-.11,11.3-1.05,17-1.65a10.16,10.16,0,0,0,4.58-1.84c3.18-.5,5.63-2.08,8.63-3.41,4.72-2.28,9.92-4.64,13.92-8.11,2.9-2.53,6.29-4.31,9.16-6.89A93.74,93.74,0,0,0,386,154.86c1-6.41.07-12.59-.58-19a93.71,93.71,0,0,0-25.77-53,41.53,41.53,0,0,1-3.08-3.67c25.93-.19,51.86-.08,77.78-.08,4.59.31,9.13-4,9.44-8.53.25-3.82,0-7.66.09-11.48,4.83,0,9.65.1,14.47,0,5.06-.23,9.52-3.77,10.06-8.92.27-4.64,0-9.33.12-14C468.42,32.45,469.2,28.91,466.67,25.82Z" transform="translate(-112.8 -0.04)" fill="#591a1b"/><path d="M112.8,15.38v3.15q32.4,0,64.8,0V15.38Z" transform="translate(-112.8 -0.04)" fill="#dcdcdc"/><path d="M112.8,18.53V50.75c13.7,0,27.4,0,41.1,0,7.9.08,15.82-.19,23.7.18q0-16.21,0-32.44Q145.21,18.5,112.8,18.53Z" transform="translate(-112.8 -0.04)" fill="#ea3031"/><path d="M300.78,29.25H196.06c0,8.29,0,16.57-.05,24.85l-.07.6h-3.1V26H300.93C300.87,27,300.82,28.18,300.78,29.25Z" transform="translate(-112.8 -0.04)" fill="#dcdcdc"/><path d="M300.74,51c-2.36-.1-4.73-.18-7.09-.2H209.79a120,120,0,0,0-13,.25c-.28,1-.53,2.06-.77,3.1.09-8.28,0-16.56,0-24.85q52.35-.09,104.72,0C300.52,36.48,300.6,43.72,300.74,51Z" transform="translate(-112.8 -0.04)" fill="#ea3031"/><path d="M453.28,40q-67-.1-133.91,0v3.62l-3.25.15v-7H453.44Z" transform="translate(-112.8 -0.04)" fill="#dcdcdc"/><path d="M453.12,43.42c-38.49.14-77,0-115.5.06-6.06,0-12.15-.14-18.2.14V40H453.33Z" transform="translate(-112.8 -0.04)" fill="#ea3031"/><path d="M300.6,54.74q-52.35-.09-104.69,0l.07-.6c.24-1,.49-2.07.77-3.1a120,120,0,0,1,13-.25H293.6c2.36,0,4.73.1,7.09.2C300.71,52.22,300.67,53.47,300.6,54.74Z" transform="translate(-112.8 -0.04)" fill="#922123"/><path d="M177.61,50.94c-7.88-.37-15.8-.1-23.7-.18-13.7.07-27.41,0-41.11,0V54.7h64.73C177.6,53.45,177.6,52.2,177.61,50.94Z" transform="translate(-112.8 -0.04)" fill="#922123"/><path d="M428.6,62.58q-47.48.06-95,0c-4.69.09-8.4-1.89-12.62-3.59,35.91-.14,71.84,0,107.76,0C428.65,60.16,428.6,61.38,428.6,62.58Z" transform="translate(-112.8 -0.04)" fill="#dcdcdc"/><path d="M348.9,93.75a78.1,78.1,0,0,0-47.24-23.33c-5.36-.69-10.63-.48-16-.48H112.8v3.71H293.62c26.27-.46,51.88,13.48,66,35.54a8.24,8.24,0,0,0,2.59,2.76A82.88,82.88,0,0,0,348.9,93.75Z" transform="translate(-112.8 -0.04)" fill="#dcdcdc"/><path d="M367.64,126.86c-1.93-4.91-2.75-10.42-5.45-14.91a8.24,8.24,0,0,1-2.59-2.76c-14.1-22.06-39.71-36-65.89-35.54H112.8v150H290.63A78.67,78.67,0,0,0,368.79,153C370.15,144,368.37,135.72,367.64,126.86Z" transform="translate(-112.8 -0.04)" fill="#ea3031"/><path d="M331.53,113a55,55,0,0,0-31.81-21.13c-8.12-1.87-15.8-1.54-24-1.57H112.8v4H288.66A54.43,54.43,0,0,1,324,107.68c4,3.46,7.18,7.57,10.61,11.57A26,26,0,0,0,331.53,113Z" transform="translate(-112.8 -0.04)" fill="#922123"/><path d="M341.37,135.78l-.52-1c-.47-5.56-3.73-10.49-6.25-15.49-3.43-4-6.61-8.11-10.61-11.57a54.41,54.41,0,0,0-35.33-13.39H112.8V202.61H289.67a55.51,55.51,0,0,0,10.59-1.35A54.68,54.68,0,0,0,341.37,135.78Z" transform="translate(-112.8 -0.04)" fill="#591a1b"/><path d="M326.49,140a39.47,39.47,0,0,0-26-28.79c-7.37-2.68-14.19-1.88-22-2q-82.87,0-165.72,0v15.58H243.69c5.11,0,10.21-.09,15.31.32,6.86-7.68,16.21-12.59,26.6-12.91a36.08,36.08,0,0,1,32,16.79c6.08,9.36,7,21.82,3.26,32.2-2.56,7.18-7.86,12.63-13.78,17.18-11.94,8.38-29.49,8-41.19-.69a36,36,0,0,1-15-30.73c.17-6.54,2.38-12.18,5-18-8.41,6.56-15.63,14.21-18.41,24.81a38.45,38.45,0,0,0,2,23.4c1.62,3.72,4.06,6.8,6.43,10.06,13.92.08,27.84,0,41.77.08a39.66,39.66,0,0,0,18.33-4C321.43,175.63,330.49,156.9,326.49,140Z" transform="translate(-112.8 -0.04)" fill="#812123"/><path d="M317.6,129c6.09,9.34,7,21.8,3.27,32.18-2.56,7.14-7.86,12.63-13.78,17.18-11.94,8.38-29.49,8-41.19-.69a36,36,0,0,1-15-30.73c.17-6.49,2.38-12.13,5-18,1-1.29,2.07-2.6,3.14-3.87,6.86-7.68,16.21-12.59,26.6-12.91A36.12,36.12,0,0,1,317.6,129Z" transform="translate(-112.8 -0.04)" fill="#591a1b"/><path d="M243.73,124.85H112.8v62.54c44.36,0,88.72.1,133.12-.08-2.37-3.26-4.81-6.34-6.43-10.06a38.45,38.45,0,0,1-2-23.4c2.78-10.6,10-18.25,18.41-24.81,1-1.29,2.07-2.6,3.14-3.87C253.94,124.76,248.84,124.85,243.73,124.85Z" transform="translate(-112.8 -0.04)" fill="#922123"/><path d="M367.66,126.86c.73,8.86,2.51,17.17,1.15,26.12a78.67,78.67,0,0,1-78.16,70.64H112.8v2.94H291.65c4.24,0,8.6.22,12.81-.27a78.46,78.46,0,0,0,45.47-24C368.51,182.6,376,152.75,367.66,126.86Z" transform="translate(-112.8 -0.04)" fill="#922123"/><path d="M300.9,133.26c-5.22-2.61-10.67-4-16.46-2.43-10,2.59-16.87,13-14.91,23.2.67,4.55,3.2,7.82,5.63,11.55a21,21,0,0,1-8-23.09,20.58,20.58,0,0,1,18.56-14.68A20.27,20.27,0,0,1,300.9,133.26Z" transform="translate(-112.8 -0.04)" fill="#dcdcdc"/><path d="M300.9,133.26c5.25,5.28,7.77,12.62,5.94,20a20.49,20.49,0,0,1-19.16,15.52c-4.59.24-8.39-1.47-12.52-3.16-2.43-3.73-5-7-5.63-11.55-2-10.21,4.91-20.61,14.91-23.2C290.23,129.28,295.68,130.65,300.9,133.26Z" transform="translate(-112.8 -0.04)" fill="#ea3031"/><path d="M343.79,145c-.51-3.25-.67-6.33-2.38-9.17a53.76,53.76,0,0,1,1.35,10.56,54.68,54.68,0,0,1-53.05,56.27H112.8v4q89,0,177.88,0a52.17,52.17,0,0,0,5.59-.42h0A54.79,54.79,0,0,0,343.79,145Z" transform="translate(-112.8 -0.04)" fill="#dcdcdc"/><path d="M329,62c2.51-.13,5-.28,7.5-.28h92.22l-.22,1.62H341.6C337.16,63.33,333.16,64,329,62Z" transform="translate(-112.8 -0.04)" fill="#ea3031"/></svg>